<svg width="135" height="191" viewBox="0 0 135 191" fill="none" xmlns="http://www.w3.org/2000/svg">
<path fill-rule="evenodd" clip-rule="evenodd" d="M13.9008 5.81119C13.9008 5.81119 12.5204 8.96651 12.3742 9.81244C12.3198 10.1262 12.224 10.5545 12.1612 10.764C12.0981 10.9737 12.0034 11.3845 11.9508 11.6768C11.898 11.9693 11.602 13.1327 11.2929 14.2623C10.7863 16.1129 9.9661 19.2328 9.67265 20.4235C9.501 21.1207 8.84557 24.6481 8.74199 25.4329C8.69145 25.8156 8.60267 26.4879 8.54484 26.9271C8.48702 27.3664 8.33062 28.4944 8.19698 29.4339C7.75442 32.5503 7.90945 36.2076 8.75884 42.6726C8.82053 43.1416 8.93891 43.7824 9.22257 45.1828C9.48483 46.4771 10.1079 48.7155 10.461 49.6326C10.5578 49.8836 10.7679 50.4961 10.9284 50.9938C11.5508 52.9248 12.7954 55.2164 14.4295 57.4392C16.7106 60.5427 17.0114 60.8879 19.8655 63.6813L22.3285 66.0917L22.2996 69.8782L22.2707 73.6644L20.0768 77.2799C17.9853 80.7273 17.8792 80.9646 17.7975 82.3817C17.7428 83.3321 17.8291 84.155 18.0372 84.6637C18.3268 85.372 18.3156 85.6716 17.935 87.389C17.6998 88.4504 17.1468 89.9092 17.1468 89.9092C17.1468 89.9092 14.145 96.0064 12.7863 97.8169C9.94993 101.597 3.27802 107.826 3.27802 107.826C2.92105 108.372 2.93016 108.44 3.46811 109.255C4.51897 110.847 6.36845 112.676 7.45551 113.198C8.08065 113.499 9.19047 113.774 10.0849 113.851L11.6328 113.984L11.72 118.89C11.7766 122.089 11.9317 124.432 12.1653 125.622C12.9327 129.531 12.8478 134.623 11.9749 137.032C11.2478 139.038 10.8148 140.051 10.5521 140.359C10.3829 140.557 10.2767 140.785 10.2445 140.865C10.2124 140.945 9.7241 141.894 9.08803 142.974C8.45196 144.053 7.98777 145.083 8.05652 145.263C8.235 145.729 10.1817 145.677 13.887 145.106C15.5774 144.845 17.1632 144.616 17.4111 144.597C17.7713 144.569 17.965 144.86 18.3759 146.045C18.6587 146.861 18.8913 147.71 18.8927 147.931C18.8943 148.153 18.9929 148.512 19.1119 148.73C19.2312 148.948 19.6531 150.05 20.0499 151.18C20.7875 153.28 20.8736 153.473 22.499 156.694C26.2681 164.163 32.273 170.492 37.5059 172.512C38.2262 172.79 39.0202 173.098 39.2707 173.198C40.4281 173.658 41.8778 173.93 43.5727 174.008C44.5871 174.054 45.4927 174.097 45.5852 174.103C45.6774 174.109 46.3945 174.658 47.1787 175.323C51.9374 179.36 61.2044 185.556 67.108 188.647C68.1643 189.2 68.3685 189.239 68.7974 188.971C69.0658 188.803 69.7545 188.405 70.3277 188.088C74.6921 185.668 81.0485 181.531 85.1142 178.463C86.5382 177.389 87.9724 176.309 88.3014 176.063C88.6306 175.818 89.3022 175.279 89.7943 174.865C90.5625 174.22 90.8618 174.113 91.9097 174.113C93.1536 174.113 96.2709 173.573 97.0953 173.215C97.3457 173.106 98.1282 172.794 98.8341 172.522C103.316 170.795 108.449 165.919 112.173 159.851C113.174 158.22 115.459 153.742 115.9 152.549C116.66 150.488 117.276 148.701 117.59 147.643C117.795 146.952 118.057 146.152 118.172 145.864C118.287 145.575 118.381 145.127 118.381 144.867C118.381 144.472 118.483 144.417 119.007 144.529C119.352 144.603 120.299 144.764 121.113 144.888C126.628 145.729 128.17 145.809 128.17 145.257C128.17 144.95 125.86 140.293 125.448 139.771C125.231 139.494 124.366 137.029 124.207 136.233C124.144 135.919 124.043 135.406 123.982 135.092C123.513 132.682 123.672 129.395 124.551 123.34C124.678 122.461 124.754 119.997 124.72 117.863L124.657 113.984L126.214 113.829C128.059 113.645 129.018 113.195 130.447 112.13C131.92 111.032 133.346 108.421 133.346 108.421C133.346 108.421 132.566 107.885 132.1 107.498C130.96 106.551 130.976 106.131 129.536 104.701C126.753 101.939 126.279 101.391 123.789 98.0697C121.537 95.0667 119.258 90.5278 118.52 87.578C118.173 86.1946 118.171 85.9744 118.487 85.2148C118.971 84.0542 118.924 82.3943 118.369 81.0856C117.792 79.7228 117.014 78.1955 116.82 78.043C116.739 77.9803 116.432 77.4668 116.136 76.902C115.84 76.3373 115.251 75.2248 114.827 74.43L114.056 72.9848V69.6675V66.3503L116.161 64.2513C120.479 59.948 123.521 55.8909 124.813 52.7133C127.272 46.6615 128.25 41.369 128.25 34.1153C128.25 28.1192 127.717 24.0179 126.219 18.4839C125.342 15.2456 123.949 9.70587 123.506 7.70071C123.292 6.72768 123.017 5.87035 122.897 5.79596C122.897 5.79596 122.533 7.51538 122.085 8.5353C121.188 10.5771 120.124 13.2162 119.961 13.8059C119.857 14.1824 119.658 14.9012 119.518 15.4032C119.379 15.9053 119.231 16.5214 119.19 16.7724C119.09 17.3924 117.959 20.7839 117.688 21.2761C117.568 21.494 117.47 21.7827 117.47 21.9173C117.47 22.6268 113.257 30.414 112.384 31.3178C112.231 31.476 111.601 32.2726 110.982 33.0884C109.231 35.3994 107.742 36.892 105.519 38.5638C102.267 41.0084 102.842 41.0709 99.76 37.9369C96.759 34.8857 94.2346 32.8468 91.0624 30.9123C88.5896 29.4044 86.8074 28.701 84.002 27.4106C83.4782 27.1696 83.1641 27.0068 82.6143 26.8283C82.0645 26.6499 81.1537 26.3331 80.5902 26.1243C79.3939 25.6812 76.7609 25.0575 74.246 24.72C73.5819 24.6309 73.3724 24.5489 72.4935 24.4754C71.6146 24.4018 70.7797 24.3369 69.6594 24.3369C68.539 24.3369 67.6729 24.3369 67.3468 24.3369C67.0208 24.3369 65.5625 24.3369 65.1431 24.3665C64.7236 24.3962 63.0304 24.5165 61.0118 24.9227C60.3231 25.0614 59.5548 25.2013 59.3044 25.2337C58.1256 25.3859 54.3192 26.5351 53.3095 27.0435C52.6889 27.3559 52.1756 27.5286 51.9752 27.6117C51.7748 27.6948 47.9514 29.3257 46.6032 30.1321C45.8779 30.5657 44.912 31.1435 44.4567 31.4162C44.0011 31.6889 43.3623 32.1081 42.7617 32.5617C41.0598 33.8473 39.5876 35.0461 38.6419 35.9742C37.4239 37.1699 34.8359 39.93 34.8359 39.93C34.1229 40.5977 34.0958 40.6034 33.3889 40.2403C32.4592 39.7625 29.8229 37.805 29.8229 37.805C29.8229 37.805 26.1606 34.2506 25.4979 33.3141C25.1883 32.8762 24.812 32.3639 24.662 32.1756C23.9173 31.2419 22.7656 29.6491 22.7656 29.5528C22.7656 29.493 22.4719 28.9549 22.1131 28.3568C20.9749 26.46 19.815 24.1762 19.257 22.7333C17.7285 18.7803 17.5477 18.2183 16.389 13.8059C16.1581 12.9273 15.7989 11.5924 15.5906 10.8393C15.3823 10.0863 15.11 9.05939 14.9852 8.55736C14.8607 8.05533 14.6715 7.4392 14.5647 7.18818C14.4582 6.93717 13.9008 5.81119 13.9008 5.81119ZM13.8085 20.7658C13.5421 21.5679 13.0506 24.3396 12.5138 28.0681C11.8459 32.7085 12.4885 42.1645 13.7857 46.7802C13.9797 47.4705 14.1638 48.1379 14.1948 48.2635C14.2258 48.389 14.5777 49.3321 14.9768 50.3592C16.4201 54.074 17.8608 56.0274 22.6905 60.8174C24.6513 62.7623 26.2078 64.495 26.2904 64.825C26.3705 65.1449 26.404 67.4025 26.3651 69.8421L26.2943 74.2778L25.4401 75.9893C24.9704 76.9306 24.0286 78.5736 23.3473 79.6404C21.8602 81.9687 21.6499 82.761 22.1958 83.9747C22.9894 85.7387 21.8921 89.893 19.2515 95.1203C17.7654 98.0629 13.1098 104.174 9.96655 107.308C9.11785 108.154 8.42327 108.946 8.42327 109.067C8.42327 109.771 13.5398 109.925 16.2881 109.303C16.7951 109.189 17.2736 109.186 17.3847 109.298C17.4958 109.409 17.3271 110.027 16.9982 110.713C16.6772 111.382 16.289 112.598 16.1358 113.413C15.7012 115.726 15.8319 122.054 16.4042 126.421C16.7844 129.323 16.8673 130.814 16.7648 132.924C16.6291 135.717 15.9931 138.844 15.3652 139.804C14.9347 140.463 14.9331 140.797 15.3602 140.797C15.9785 140.797 18.2553 139.665 19.0566 138.96C20.38 137.796 20.4831 137.937 21.641 142.511C22.6688 146.571 23.2314 148.481 23.7914 149.811C23.9501 150.187 24.3697 151.214 24.7239 152.093C25.0781 152.971 25.642 154.203 25.9767 154.831C26.3116 155.458 26.776 156.333 27.0089 156.774C28.0613 158.767 30.2031 161.672 32.1034 163.685C34.922 166.671 36.8821 168.05 39.9643 169.218C41.3847 169.756 43.8887 170.044 43.7421 169.653C43.6972 169.534 42.951 168.028 42.6396 167.207C42.2104 166.074 41.9809 164.62 41.9809 164.62C41.9809 164.62 42.6873 165.515 43.2642 166.022C46.5079 168.875 48.1247 171.002 51.4503 173.566C56.2945 177.302 67.4199 184.611 68.2626 184.611C68.4241 184.611 68.9845 184.317 69.5079 183.958C70.0313 183.599 70.8021 183.129 71.221 182.914C72.1531 182.435 76.9461 179.339 79.0809 177.838C87.2933 172.061 89.033 170.939 93.224 165.543C93.6771 164.959 94.3696 163.823 94.3696 163.823C94.3696 163.823 93.8632 167.486 92.8775 169.211C92.7927 169.36 92.656 169.456 92.656 169.589C92.656 169.742 93.2167 169.798 94.2079 169.741C96.4232 169.616 99.9036 167.823 102.554 165.442C104.141 164.017 107.454 160.255 107.454 159.878C107.454 159.819 107.958 159.007 108.575 158.074C109.192 157.14 110.221 155.207 110.863 153.778C112.297 150.583 112.361 150.432 112.645 149.582C112.771 149.206 112.952 148.692 113.047 148.441C113.142 148.19 113.241 147.908 113.268 147.814C113.294 147.72 113.341 147.591 113.373 147.529C113.404 147.466 113.446 147.338 113.466 147.243C113.697 146.153 115.653 139.599 115.653 139.599C115.653 139.599 115.939 138.099 117.286 139.008C118.972 140.147 120.557 140.885 120.974 140.724C121.293 140.601 121.293 140.493 120.973 139.609C120.778 139.07 120.591 138.526 120.559 138.401C120.526 138.275 120.439 138.019 120.366 137.83C119.511 135.634 119.272 130.493 119.852 126.817C120.625 121.923 120.804 117.1 120.32 114.212C120.11 112.957 119.885 111.61 119.821 111.218C119.71 110.544 119.751 110.497 120.579 110.342C121.061 110.252 122.764 110.119 124.268 109.957C125.772 109.794 128.057 109.553 128.057 109.127C128.057 108.975 127.169 107.953 126.083 106.854C123.818 104.56 122.014 102.566 119.915 99.4364C117.557 95.9207 115.55 91.7469 114.954 89.7951C114.801 89.2931 114.59 88.6256 114.485 88.3118C114.381 87.9981 114.252 87.4846 114.199 87.1709C114.146 86.8571 114.03 86.2202 113.942 85.7556C113.815 85.089 113.882 84.7686 114.26 84.2372C114.523 83.8666 114.739 83.3646 114.739 83.1218C114.739 82.6834 112.609 78.2915 112.28 78.0533C112.186 77.9848 111.653 77.0561 111.095 75.9893L110.081 74.0496L110.003 69.4359L109.924 64.8223L113.097 61.6526C114.842 59.9094 116.686 57.9193 117.193 57.2304C117.701 56.5415 118.258 55.8336 118.43 55.6577C118.819 55.2611 120.202 53.247 120.202 53.0772C120.202 53.0088 120.516 52.2674 120.899 51.4292C121.623 49.8435 122.532 47.2432 122.842 45.8674C122.941 45.4281 123.034 45.0174 123.048 44.9546C123.309 43.7974 123.399 43.3602 123.494 42.7867C123.556 42.4102 123.657 41.8454 123.718 41.5317C124.169 39.2253 124.348 33.9444 124.085 30.6924C123.737 26.3827 122.77 20.4785 122.43 20.592C122.317 20.6298 121.967 21.429 121.653 22.3678C120.443 25.986 117.083 31.9162 114.136 35.6349C111.093 39.4727 106.232 43.4581 102.511 45.165C101.121 45.8026 101.073 45.7802 99.6386 43.8139C98.3881 42.1001 95.3382 38.9681 93.6804 37.6955C92.9292 37.1186 92.2633 36.5894 92.2007 36.5196C91.2058 35.4073 84.166 31.6405 81.1594 30.6114C72.2041 27.5462 64 27.5695 55.1492 30.6851C53.3956 31.3023 49.0596 33.3451 47.3524 34.3581C43.6845 36.5351 39.1712 40.5559 36.7569 43.7977C36.0109 44.7992 35.23 45.6235 35.0215 45.6289C34.8129 45.6346 33.8743 45.2312 32.9354 44.7328C27.8394 42.0264 23.6309 37.9777 19.6449 31.9474C18.0354 29.5126 15.7665 25.21 15.8847 24.8163C15.9129 24.7223 15.8474 24.6452 15.739 24.6452C15.6306 24.6452 15.3108 23.9521 15.0278 23.1048C14.3448 21.0586 13.9578 20.3163 13.8085 20.7658ZM16.2521 33.3869C16.3157 33.9129 16.3844 34.425 16.4865 35.0865C16.5366 35.4107 16.5721 35.6092 16.6186 35.9339C16.6803 36.3647 16.7154 36.4557 16.87 37.0018C17.0246 37.5478 17.1751 38.1185 17.2049 38.2698C17.4307 39.4245 18.1952 41.1052 19.1777 42.6078C19.8165 43.5848 20.3989 44.4355 20.4717 44.4982C20.5446 44.561 20.8831 45.0231 21.2239 45.5251C21.5647 46.0271 22.0767 46.6946 22.3615 47.0084C23.0106 47.7233 24.2201 49.9621 24.0496 50.1331C23.9797 50.2031 23.6412 49.9138 23.2974 49.4902C22.4599 48.4583 20.261 46.5967 19.9572 46.3238C19.6535 46.0509 19.0072 45.4298 18.6717 45.0247C18.3361 44.6195 17.8107 44.0418 17.4929 44.0418C17.0316 44.0418 17.8856 47.2786 18.6739 49.1801C18.9102 49.7499 19.1333 50.262 19.3508 50.607C19.5682 50.9521 19.5133 50.862 19.8061 51.3019C20.0988 51.7418 21.987 54.4266 23.2291 55.5968C24.9267 57.1964 26.3125 58.2267 28.2373 59.32C29.1318 59.828 29.9101 60.2437 29.9668 60.2437C30.0235 60.2437 31.34 60.859 32.8924 61.6111C34.4637 62.3721 35.8706 62.9182 36.0664 62.8429C36.5704 62.6492 38.1258 60.2357 38.7364 58.7002C39.4981 56.7841 39.4721 54.3992 38.6708 52.6859C37.9994 51.251 36.6936 49.6883 35.7782 49.2246C35.4451 49.056 34.968 48.8047 34.7175 48.6664C34.0243 48.2833 32.127 47.4648 31.9313 47.4643C31.8359 47.4641 30.9384 47.0421 29.9368 46.5267C28.5376 45.8065 27.568 45.0532 25.7527 43.2753C22.5498 40.1385 20.6454 38.1548 20.395 37.6936C20.2803 37.4828 20.1166 37.2587 20.0312 37.1959C19.814 37.0362 17.6402 33.5455 17.272 33.1459C16.9039 32.7463 16.5995 32.4652 16.5995 32.4652C16.1857 32.434 16.1488 32.5314 16.2521 33.3869ZM65.0757 33.2749C65.0757 33.2749 63.5224 33.511 63.0317 33.6964C62.5409 33.8819 62.3131 33.9222 62.2352 34.4222C62.1574 34.9221 62.3131 36.5114 62.3131 36.5114C62.3108 36.8108 62.4488 37.8595 63.1991 43.2431C63.2868 43.8707 63.4193 60.3193 63.4939 79.7956L63.6298 115.207L65.8352 117.505C67.0481 118.769 68.1163 119.803 68.2089 119.803C68.3464 119.803 71.6315 116.469 72.6846 115.261C72.9011 115.013 72.9947 106.837 73.1019 78.7497C73.2262 46.2222 73.2795 42.3043 73.6283 40.0484C74.3652 35.2825 74.365 35.2312 73.6032 34.8364C71.766 33.8841 69.4883 33.268 67.3862 33.1551C66.1967 33.0912 65.9826 33.1395 65.0757 33.2749ZM54.0858 36.4194C53.2191 36.8626 51.7849 37.706 50.8986 38.294C50.0126 38.8823 49.1851 39.4056 49.0599 39.4571C48.2084 39.8077 44.3396 43.5765 42.7012 45.6513C41.5493 47.1104 41.509 47.5846 42.3914 49.3088C43.1014 50.6965 43.1449 50.924 43.2189 53.6261C43.3541 58.5608 42.0686 60.9797 39.351 64.6335C38.7455 65.4477 37.666 66.6108 37.666 66.6108C37.666 66.6108 40.2701 65.7782 40.9098 65.1369C41.2622 64.7835 41.662 64.6993 41.6595 64.9788C41.6549 65.5016 39.8396 67.6441 38.6965 68.4761C37.5733 69.2933 36.5037 69.5998 34.7735 69.5998C33.4684 69.5998 33.2492 69.6605 33.1239 70.0562C33.0445 70.3072 33.0461 70.7232 33.1276 70.9808C33.2093 71.2384 33.3072 71.9139 33.3455 72.4823C33.4263 73.6822 34.1461 74.5847 35.474 75.1509C39.5245 76.8779 42.9466 77.9905 46.7833 78.8285C51.6743 79.8967 53.0047 80.1281 56.8478 80.5797C59.4883 80.89 59.6921 80.8195 60.131 79.4446C60.5112 78.2546 60.6794 54.3262 60.345 49.0279C60.0456 44.2821 59.1753 39.8857 58.1158 37.7664C57.6491 36.8327 56.4475 35.5968 56.0157 35.6063C55.821 35.6107 54.9527 35.9765 54.0858 36.4194ZM77.9865 38.3137C77.6692 38.8282 76.9375 41.5691 76.7314 43.0149C75.9501 48.4985 75.9119 49.6465 75.9558 66.1768C75.9843 76.8817 76.0337 78.4907 76.3572 79.2411C76.5814 79.7609 76.8815 80.0963 77.1214 80.0954C77.8984 80.0927 82.2038 77.6768 83.7583 76.3713C85.4983 74.9099 85.587 74.7965 86.9216 72.3306C89.7582 67.0889 89.9271 60.5764 87.4256 52.9095C86.6088 50.406 84.6584 46.0399 83.5741 44.2876C80.9331 40.019 78.5236 37.4429 77.9865 38.3137ZM31.2925 79.1304C31.0423 79.3068 29.14 82.2777 29.14 82.4922C29.14 82.5606 28.872 83.0225 28.5446 83.5186C27.4045 85.2453 28.1394 85.9507 33.7464 88.5106C37.6953 90.3133 37.6725 90.304 40.7504 91.4322C47.8585 94.038 50.8543 94.7283 56.5315 95.0696C60.3172 95.2971 60.5531 95.0213 60.5551 90.3594C60.5567 87.0791 60.4117 86.8057 58.5629 86.6049C57.0729 86.4431 53.2897 85.9261 50.7673 85.5393C49.3665 85.3245 40.8802 82.7105 38.9861 81.9105C38.7043 81.7916 38.2435 81.5995 37.9616 81.4838C37.6798 81.3681 36.2831 80.7519 34.8575 80.1146C32.2739 78.9592 31.7432 78.8127 31.2925 79.1304ZM90.4933 84.2593C89.9924 84.3832 89.3777 84.5697 89.1273 84.6735C88.1741 85.0685 84.7151 85.7823 82.6391 86.0123C78.1894 86.5052 77.1426 86.6834 76.5971 87.0417C76.0439 87.405 76.0371 87.4511 76.0371 90.7875C76.0371 94.0234 76.0592 94.1863 76.5639 94.6616C76.9992 95.0712 77.3625 95.1577 78.6513 95.1577C80.6544 95.1577 83.1019 94.7403 83.5848 94.3164C83.7363 94.1833 83.2911 89.3139 83.2911 89.3139C83.2911 89.3139 84.227 94.1517 84.4076 94.2648C84.905 94.5763 87.1387 94.1279 91.3857 92.8639C93.8767 92.1225 94.4793 91.7282 94.4729 90.8437C94.4674 90.1077 92.7776 84.7403 92.4126 84.2992C92.1137 83.9385 91.8146 83.9321 90.4933 84.2593ZM25.9942 89.9733C25.861 90.1342 25.7008 90.5192 25.6379 90.8291C25.2812 92.591 23.4108 96.4059 21.7974 98.6619C19.6317 101.691 15.6514 106.534 15.6514 106.534C16.0434 106.742 16.9504 106.642 19.2369 106.139C21.5613 105.628 22.0972 105.465 22.9898 104.999C23.7559 104.598 23.9039 104.578 23.9039 104.871C23.9039 105.403 23.2521 106.567 22.3144 107.708C21.1636 109.11 20.3841 110.524 19.8457 112.188C19.2337 114.08 19.1588 119.818 19.715 122.199C19.9789 123.328 20.1116 125.194 20.1678 128.562C20.2118 131.184 20.293 133.374 20.3488 133.43C20.6689 133.751 21.4133 132.826 22.3442 130.95C23.5301 128.56 24.0291 126.98 24.2606 124.88C24.3471 124.096 24.4931 123.454 24.5848 123.454C25.2527 123.454 24.7876 134.01 24.0043 136.632C23.7666 137.427 24.3774 137.278 25.6393 136.233C26.2453 135.731 26.7944 135.32 26.8593 135.32C26.9242 135.32 26.9772 137.245 26.9772 139.599C26.9772 141.952 27.0483 144.186 27.1348 144.562C27.2215 144.939 27.392 145.811 27.5136 146.502C27.7233 147.693 28.3664 149.682 29.0261 151.18C30.2559 153.972 30.8403 155.055 31.9784 156.657C33.3509 158.587 37.7058 163.16 38.1718 163.16C38.1718 163.16 37.7669 161.182 37.8242 159.157C37.9048 156.321 38.3889 156.154 39.2078 154.532C40.0652 152.835 41.3979 150.954 41.5998 151.156C41.661 151.218 41.7487 151.762 41.7942 152.365C42.1275 156.766 44.2616 160.906 48.3061 164.996C51.3681 168.093 52.3363 168.977 52.8731 169.166C53.4274 169.362 53.376 169.053 52.5772 167.393C51.9823 166.157 51.8662 165.613 51.7658 163.585C51.6449 161.146 51.8484 159.296 52.2471 159.214C52.3723 159.188 52.5364 159.814 52.6118 160.604C52.7604 162.161 54.3071 165.626 55.4238 166.904C55.7427 167.269 56.0043 167.628 56.0052 167.703C56.0084 167.939 58.5629 170.526 60.1622 171.911C61.8997 173.417 62.3725 173.462 62.3873 172.124C62.4012 170.895 62.9255 168.796 63.2453 168.689C63.4261 168.629 63.516 168.92 63.516 169.564C63.516 170.194 63.786 171.09 64.2951 172.15C65.1105 173.847 67.2965 176.492 68.0937 176.746C69.1717 177.088 72.388 174.106 73.5167 171.717C75.2191 168.114 75.3626 167.661 76.046 163.731C76.5926 160.585 76.6456 153.481 76.1482 150.039C75.6444 146.554 75.6845 146.115 76.6361 144.673C77.0907 143.985 77.7794 143.085 78.1666 142.673L78.8703 141.926L78.4179 140.186C77.8729 138.089 77.5706 137.827 76.4867 138.509C73.3653 140.475 72.4907 140.887 71.4316 140.889C70.5599 140.89 70.2275 140.769 69.6875 140.25C69.1022 139.688 68.901 139.626 68.0457 139.746C67.4419 139.831 66.835 140.109 66.4516 140.477C65.9071 141 65.7138 141.053 64.8451 140.914C64.3019 140.827 63.4755 140.508 63.0086 140.206C62.5419 139.904 62.1162 139.656 62.0631 139.656C62.0098 139.656 61.3319 139.297 60.5565 138.857C59.7811 138.418 59.0526 138.059 58.9374 138.059C58.5957 138.059 57.5929 140.725 57.6011 141.612C57.6031 141.854 58.1019 142.587 58.7095 143.242C59.3169 143.896 59.7244 144.522 59.7244 144.522L59.9819 144.9C59.9819 144.9 60.3288 145.342 60.3288 145.529C60.3288 145.915 60.371 145.924 57.597 144.918C56.2319 144.423 55.3099 144.228 54.4667 144.257C53.8095 144.279 53.2715 144.46 53.2715 144.46C53.2715 144.46 52.3784 144.889 52.2434 144.671C52.1788 144.565 52.3918 144.087 52.7169 143.608C53.5356 142.402 54.3993 140.464 54.7834 138.971C55.2453 137.178 56.0546 135.614 57.2439 134.218C58.1044 133.207 58.238 132.93 58.0414 132.561C57.8661 132.233 57.8811 132.095 58.0994 132.027C58.9237 131.771 60.7379 131.136 61.2395 130.93C61.9404 130.641 62.4285 130.451 63.7437 129.958C64.3071 129.746 65.5117 129.21 66.4202 128.766L68.0723 127.958L69.2659 128.474C69.9225 128.758 71.1766 129.286 72.0531 129.648C72.9296 130.01 73.8516 130.403 74.102 130.52C74.3524 130.637 75.0183 130.889 75.5818 131.08C78.4969 132.065 78.433 132.026 78.3533 132.789C78.3125 133.177 78.3799 133.495 78.5028 133.495C78.8377 133.495 80.3598 135.71 80.926 137.021C81.1992 137.655 81.6069 138.774 81.8319 139.508C82.057 140.243 82.6348 141.652 83.1158 142.639C83.7988 144.04 84.2295 144.609 85.0794 145.234C88.3048 147.606 91.937 148.544 94.9262 147.776C96.5963 147.347 97.7498 146.747 97.8343 146.261C97.8673 146.072 97.3935 145.639 96.7262 145.247C95.2449 144.376 92.4932 141.585 91.7233 140.171C90.0728 137.141 89.2341 135.541 89.2398 135.435C89.2434 135.371 89.0854 134.933 88.8887 134.463C88.692 133.993 88.2731 132.633 87.9583 131.441C87.6432 130.249 87.3065 129.119 87.2098 128.931C87.1132 128.742 86.2108 128.126 85.2041 127.562C83.3879 126.542 78.3043 123.272 78.086 122.982C77.9872 122.851 77.3584 122.6 76.6062 122.392C76.481 122.357 75.6314 122.204 74.7183 122.051L73.0582 121.773L71.3035 123.503C70.3384 124.454 69.227 125.394 68.8336 125.592C68.1436 125.938 68.0876 125.928 67.24 125.308C66.7569 124.955 65.7097 124.034 64.9129 123.261C63.3275 121.724 63.2312 121.697 61.0118 122.175C59.1942 122.566 59.1884 122.638 58.1519 123.213C57.7182 123.453 57.4301 123.722 57.0966 123.91C56.7628 124.099 55.4527 124.947 54.1851 125.796C52.9177 126.645 51.2668 127.65 50.5166 128.03C49.0781 128.758 49.0353 128.81 48.852 130.072C48.7883 130.511 48.5201 131.486 48.256 132.24C47.9919 132.993 47.7401 133.775 47.6967 133.978C47.5512 134.659 46.0022 137.812 44.9354 139.599C43.7746 141.544 41.9625 143.555 40.1342 144.927C38.4857 146.165 38.0871 146.088 38.8167 144.674C39.5769 143.2 40.1824 139.05 40.5141 133.038C40.7404 128.94 40.6079 127.641 39.8603 126.628C39.6277 126.312 38.9322 126.113 38.9196 125.948C38.9077 125.792 39.5676 125.668 39.7273 125.424C40.0624 124.911 40.0381 124.807 39.2845 123.54C38.1586 121.647 35.3718 118.566 34.5468 118.302C34.3276 118.232 34.1484 118.041 34.1484 117.879C34.1484 117.667 34.5222 117.59 35.4574 117.609L36.7664 117.635L36.7093 116.899C36.6781 116.494 36.2729 115.467 35.8092 114.617C34.3394 111.923 34.1523 111.485 33.434 109.057C32.8223 106.99 32.7301 106.326 32.7242 103.943C32.7189 101.79 32.8155 100.913 33.1763 99.8357C33.7008 98.2703 34.6502 95.9502 35.3486 94.5268C35.6343 93.9446 35.7406 93.4814 35.6134 93.3744C35.4963 93.2758 34.3761 92.8554 33.1239 92.4399C30.892 91.6994 30.3472 91.481 27.7312 90.2771C26.2235 89.5831 26.3054 89.5973 25.9942 89.9733ZM44.2035 97.617C43.5149 97.8472 44.4141 99.595 45.971 101.052C46.9752 101.992 47.5924 102.316 49.1027 102.698C50.4568 103.039 51.7291 102.843 54.6374 101.846C56.8728 101.08 57.1417 100.425 57.1417 100.425C57.1417 100.425 55.9545 100.267 55.2697 100.017C54.5757 99.7638 54.2135 99.4597 53.6125 99.1393C52.6172 98.6087 51.3373 98.1838 49.1737 97.6654C48.3917 97.478 44.7262 97.4424 44.2035 97.617ZM85.3801 98.0223C84.3208 98.3427 82.8866 98.9068 82.1929 99.2753C81.3613 99.7173 80.8319 99.8354 80.0559 100.219C79.5421 100.473 78.8341 100.703 78.8341 100.703C78.8341 100.703 83.8421 102.869 85.3025 102.87C86.9155 102.871 88.2752 102.386 89.1059 101.665C89.9366 100.944 91.8999 98.6715 91.8881 98.1774C91.8776 97.7482 91.7579 97.666 91.1844 97.6953C90.8042 97.7144 89.7761 97.6647 88.8997 97.5848C87.5683 97.4634 86.9892 97.5353 85.3801 98.0223ZM39.3609 97.925C39.1686 98.333 38.3967 99.6603 38.3109 100.005C38.3109 100.005 37.7908 101.198 37.5906 102.004C37.0902 104.016 37.3044 106.135 37.6657 107.313C38.0627 108.608 39.2825 111.221 39.6836 111.636C39.8398 111.798 40.4736 112.598 41.0919 113.413C41.7102 114.229 43.1668 115.897 44.3289 117.119C46.5857 119.493 46.9081 120.113 45.7664 119.884C44.8419 119.699 44.4243 120.532 44.8063 121.799C45.0911 122.743 46.3863 124.371 46.8514 124.368C47.0141 124.367 47.9826 123.691 49.0034 122.865C50.0244 122.038 51.2299 121.173 51.6825 120.942C52.135 120.71 52.6259 120.375 52.7732 120.197C52.9207 120.019 53.4773 119.689 54.01 119.465C54.543 119.24 55.4133 118.865 55.944 118.631C56.4748 118.397 56.9969 118.206 57.1041 118.206C57.5489 118.206 58.7742 117.444 59.0667 116.986C59.2397 116.716 59.4876 116.083 59.6181 115.581C60.0249 114.014 60.6171 106.968 60.5126 105.495C60.4719 104.922 59.2138 106.416 59.2138 106.416C59.2138 106.416 58.7697 107.014 58.0571 107.705C57.3444 108.395 56.4449 109.248 55.1599 109.781C53.9027 110.303 52.5883 110.627 51.7255 110.372L50.7796 110.092L51.4332 109.473C52.2216 108.727 53.5283 106.546 53.5283 106.125C53.5283 106.125 52.6697 106.62 52.062 106.764C51.4543 106.908 50.2212 106.94 49.7909 106.877C49.3605 106.815 47.1075 106.587 45.7019 105.702C44.6162 105.019 43.4399 103.317 43.4399 103.317C43.4399 103.317 41.4219 100.969 40.1695 99.4502C39.7414 98.9309 39.3609 97.925 39.3609 97.925ZM96.4105 98.0816C96.4105 98.0816 96.0624 98.7648 95.9754 99.1292C95.6945 100.304 92.5408 103.601 92.5408 103.601C92.5408 103.601 91.0394 105.581 90.3957 106.05C89.7519 106.519 89.1903 106.659 89.1903 106.659C89.1903 106.659 89.1248 106.815 90.2403 108.782C90.9319 110.002 91.2309 111.112 91.2309 111.112C91.2309 111.112 90.8539 110.605 90.4659 110.101C90.0778 109.596 89.4283 108.595 89.0228 107.874C88.214 106.438 87.8074 107.286 85.371 107.15C84.4945 107.101 82.6784 106.18 82.6784 106.18C82.6784 106.18 83.6966 108.132 84.8811 109.39L85.7125 110.272L84.5742 110.124C82.7932 109.893 81.2338 109.51 80.3321 109.081C79.2644 108.574 77.403 107.015 77.403 106.628C77.403 106.382 76.5473 105.883 76.1273 105.883C75.9258 105.883 75.9014 109.333 76.2887 111.489C76.7248 113.916 77.7935 116.594 78.4286 117.428C79.9705 119.455 82.9975 119.661 88.0947 118.087C90.0475 117.483 90.7689 117.129 92.3662 115.909C93.9635 114.689 95.6558 113.126 96.7854 111.474C97.5811 110.31 98.5464 108.114 99.0035 106.427C99.3504 105.146 99.3192 103.71 98.9142 102.346C98.5987 101.282 98.4887 100.491 97.8081 99.5222C97.3573 98.8807 96.4105 98.0816 96.4105 98.0816ZM63.2337 133.682C63.2337 133.682 64.0861 136.293 68.183 136.299C71.2349 136.304 72.5167 134.894 73.5331 133.753L63.2337 133.682Z" fill="white"/>
<path fill-rule="evenodd" clip-rule="evenodd" d="M77.9865 38.3136C77.6692 38.8282 76.9375 41.5691 76.7314 43.0149C75.9501 48.4985 75.9119 49.6465 75.9558 66.1768C75.9843 76.8817 76.0337 78.4907 76.3572 79.241C76.5814 79.7608 76.8815 80.0963 77.1214 80.0954C77.8984 80.0926 82.2038 77.6767 83.7583 76.3712C85.4983 74.9099 85.587 74.7964 86.9216 72.3306C89.7582 67.0889 89.9271 60.5764 87.4256 52.9095C86.6088 50.4059 84.6584 46.0399 83.5741 44.2875C80.9331 40.0189 78.5236 37.4428 77.9865 38.3136Z" fill="#026EEC"/>
<path fill-rule="evenodd" clip-rule="evenodd" d="M90.4932 84.2593C89.9924 84.3832 89.3777 84.5696 89.1273 84.6734C88.1741 85.0684 84.7151 85.7822 82.6391 86.0123C78.1894 86.5052 77.1426 86.6834 76.5971 87.0417C76.0439 87.4049 76.0371 87.451 76.0371 90.7875C76.0371 94.0233 76.0592 94.1862 76.5639 94.6616C76.9992 95.0712 77.3625 95.1577 78.6513 95.1577C80.6544 95.1577 83.1019 94.7403 83.5848 94.3163C83.7363 94.1832 83.2911 89.3138 83.2911 89.3138C83.2911 89.3138 84.227 94.1517 84.4076 94.2647C84.905 94.5762 87.1387 94.1278 91.3857 92.8638C93.8767 92.1224 94.4793 91.7281 94.4729 90.8436C94.4674 90.1077 92.7775 84.7403 92.4126 84.2992C92.1137 83.9384 91.8146 83.932 90.4932 84.2593Z" fill="#026EEC"/>
<path fill-rule="evenodd" clip-rule="evenodd" d="M31.2924 79.1303C31.0422 79.3067 29.14 82.2776 29.14 82.4921C29.14 82.5606 28.872 83.0225 28.5446 83.5186C27.4045 85.2453 28.1394 85.9507 33.7463 88.5106C37.6953 90.3133 37.6725 90.304 40.7504 91.4322C47.8585 94.0379 50.8542 94.7282 56.5315 95.0696C60.3172 95.2971 60.5531 95.0212 60.5551 90.3594C60.5567 87.0791 60.4117 86.8057 58.5629 86.6049C57.0729 86.4431 53.2897 85.926 50.7673 85.5392C49.3665 85.3245 40.8802 82.7105 38.9861 81.9105C38.7042 81.7916 38.2435 81.5994 37.9616 81.4837C37.6798 81.368 36.2831 80.7519 34.8575 80.1146C32.2739 78.9592 31.7432 78.8127 31.2924 79.1303Z" fill="#026EEC"/>
<path fill-rule="evenodd" clip-rule="evenodd" d="M54.0858 36.4194C53.2191 36.8625 51.7849 37.7059 50.8986 38.294C50.0126 38.8823 49.1851 39.4056 49.0599 39.4571C48.2084 39.8076 44.3396 43.5765 42.7012 45.6513C41.5493 47.1104 41.509 47.5846 42.3914 49.3088C43.1014 50.6965 43.1449 50.924 43.2189 53.626C43.3541 58.5608 42.0686 60.9797 39.351 64.6335C38.7455 65.4477 37.666 66.6107 37.666 66.6107C37.666 66.6107 40.2701 65.7782 40.9098 65.1369C41.2622 64.7835 41.662 64.6992 41.6594 64.9788C41.6549 65.5016 39.8396 67.6441 38.6965 68.4761C37.5732 69.2933 36.5037 69.5998 34.7735 69.5998C33.4684 69.5998 33.2492 69.6605 33.1239 70.0561C33.0445 70.3072 33.0461 70.7232 33.1276 70.9808C33.2093 71.2384 33.3072 71.9139 33.3455 72.4823C33.4263 73.6822 34.1461 74.5847 35.474 75.1508C39.5245 76.8778 42.9466 77.9905 46.7833 78.8285C51.6743 79.8966 53.0047 80.128 56.8477 80.5796C59.4883 80.89 59.6921 80.8195 60.131 79.4446C60.5112 78.2545 60.6794 54.3261 60.345 49.0279C60.0456 44.2821 59.1753 39.8857 58.1158 37.7664C57.6491 36.8326 56.4475 35.5967 56.0157 35.6063C55.821 35.6107 54.9527 35.9765 54.0858 36.4194Z" fill="#026EEC"/>
</svg>
