<svg width="75" height="58" viewBox="0 0 75 58" fill="none" xmlns="http://www.w3.org/2000/svg">
<path d="M74.5 29.7873C74.5 54.9187 59.0445 58 38.61 58C18.1755 58 0.5 54.9187 0.5 29.7873C0.5 4.65588 26.03 39.3432 44.9 24.3267C63.77 9.31019 74.5 4.65588 74.5 29.7873Z" fill="white" fill-opacity="0.1"/>
<path fill-rule="evenodd" clip-rule="evenodd" d="M15.1045 17.7083C15.1045 17.2939 15.2691 16.8965 15.5621 16.6035C15.8552 16.3104 16.2526 16.1458 16.667 16.1458H40.6253C41.0397 16.1458 41.4372 16.3104 41.7302 16.6035C42.0232 16.8965 42.1878 17.2939 42.1878 17.7083C42.1878 18.1227 42.0232 18.5202 41.7302 18.8132C41.4372 19.1062 41.0397 19.2708 40.6253 19.2708H16.667C16.2526 19.2708 15.8552 19.1062 15.5621 18.8132C15.2691 18.5202 15.1045 18.1227 15.1045 17.7083ZM23.4378 34.375C23.4378 33.9606 23.6024 33.5632 23.8955 33.2701C24.1885 32.9771 24.5859 32.8125 25.0003 32.8125H29.167C29.5814 32.8125 29.9788 32.9771 30.2718 33.2701C30.5649 33.5632 30.7295 33.9606 30.7295 34.375C30.7295 34.7894 30.5649 35.1868 30.2718 35.4798C29.9788 35.7729 29.5814 35.9375 29.167 35.9375H25.0003C24.5859 35.9375 24.1885 35.7729 23.8955 35.4798C23.6024 35.1868 23.4378 34.7894 23.4378 34.375ZM32.8128 34.375C32.8128 33.9606 32.9774 33.5632 33.2705 33.2701C33.5635 32.9771 33.9609 32.8125 34.3753 32.8125H42.7087C43.1231 32.8125 43.5205 32.9771 43.8135 33.2701C44.1065 33.5632 44.2712 33.9606 44.2712 34.375C44.2712 34.7894 44.1065 35.1868 43.8135 35.4798C43.5205 35.7729 43.1231 35.9375 42.7087 35.9375H34.3753C33.9609 35.9375 33.5635 35.7729 33.2705 35.4798C32.9774 35.1868 32.8128 34.7894 32.8128 34.375Z" fill="white"/>
<path fill-rule="evenodd" clip-rule="evenodd" d="M19.617 10.2333C18.7316 11.1083 18.2295 12.775 18.2295 16.4375V33.5625C18.2295 37.2271 18.7316 38.8917 19.617 39.7667C20.5087 40.6479 22.2066 41.1458 25.917 41.1458H49.0837C52.7941 41.1458 54.492 40.6479 55.3837 39.7667C56.2691 38.8917 56.7712 37.225 56.7712 33.5625V25.0625C56.7712 24.6481 56.9358 24.2507 57.2288 23.9576C57.5218 23.6646 57.9193 23.5 58.3337 23.5C58.7481 23.5 59.1455 23.6646 59.4385 23.9576C59.7315 24.2507 59.8962 24.6481 59.8962 25.0625V33.5625C59.8962 37.2104 59.4712 40.1187 57.5816 41.9896C55.6962 43.8521 52.7691 44.2708 49.0837 44.2708H25.917C22.2316 44.2708 19.3045 43.8521 17.4191 41.9896C15.5295 40.1187 15.1045 37.2104 15.1045 33.5625V16.4375C15.1045 12.7896 15.5295 9.88124 17.4191 8.01041C19.3045 6.14791 22.2316 5.72916 25.917 5.72916H40.6253C41.0397 5.72916 41.4372 5.89378 41.7302 6.1868C42.0232 6.47983 42.1878 6.87726 42.1878 7.29166C42.1878 7.70606 42.0232 8.10349 41.7302 8.39651C41.4372 8.68954 41.0397 8.85416 40.6253 8.85416H25.917C22.2066 8.85416 20.5087 9.35207 19.617 10.2333Z" fill="white"/>
<path fill-rule="evenodd" clip-rule="evenodd" d="M45.3125 13.0208C45.3125 12.6064 45.4771 12.209 45.7701 11.916C46.0632 11.6229 46.4606 11.4583 46.875 11.4583H58.3333C58.7477 11.4583 59.1452 11.6229 59.4382 11.916C59.7312 12.209 59.8958 12.6064 59.8958 13.0208C59.8958 13.4352 59.7312 13.8326 59.4382 14.1257C59.1452 14.4187 58.7477 14.5833 58.3333 14.5833H46.875C46.4606 14.5833 46.0632 14.4187 45.7701 14.1257C45.4771 13.8326 45.3125 13.4352 45.3125 13.0208Z" fill="white"/>
<path fill-rule="evenodd" clip-rule="evenodd" d="M52.6045 5.72916C53.0189 5.72916 53.4163 5.89378 53.7093 6.1868C54.0024 6.47983 54.167 6.87726 54.167 7.29166V18.75C54.167 19.1644 54.0024 19.5618 53.7093 19.8548C53.4163 20.1479 53.0189 20.3125 52.6045 20.3125C52.1901 20.3125 51.7927 20.1479 51.4996 19.8548C51.2066 19.5618 51.042 19.1644 51.042 18.75V7.29166C51.042 6.87726 51.2066 6.47983 51.4996 6.1868C51.7927 5.89378 52.1901 5.72916 52.6045 5.72916Z" fill="white"/>
</svg>
