<svg width="30" height="22" viewBox="0 0 30 22" fill="none" xmlns="http://www.w3.org/2000/svg">
<path d="M27.7983 0.852737H2.20166C0.987656 0.852737 0 1.84039 0 3.0544V18.9455C0 20.1596 0.987656 21.1472 2.20166 21.1472H27.7983C29.0123 21.1472 29.9999 20.1596 29.9999 18.9455V3.0544C30 1.84039 29.0123 0.852737 27.7983 0.852737ZM9.22828 14.0667H12.2022C12.559 14.0667 12.8482 14.356 12.8482 14.7127C12.8482 15.0695 12.559 15.3587 12.2022 15.3587H9.22828C8.87145 15.3587 8.58228 15.0695 8.58228 14.7127C8.58228 14.356 8.8715 14.0667 9.22828 14.0667ZM2.79375 7.58703C2.79375 7.2302 3.08297 6.94104 3.43975 6.94104H7.30975C7.66658 6.94104 7.95574 7.23026 7.95574 7.58703V10.3851C7.95574 10.7419 7.66652 11.0311 7.30975 11.0311H3.43975C3.08291 11.0311 2.79375 10.7418 2.79375 10.3851V7.58703ZM3.43975 14.0667H6.41367C6.77051 14.0667 7.05967 14.356 7.05967 14.7127C7.05967 15.0695 6.77045 15.3587 6.41367 15.3587H3.43975C3.08291 15.3587 2.79375 15.0695 2.79375 14.7127C2.79375 14.356 3.08303 14.0667 3.43975 14.0667ZM14.0566 18.2314H3.43975C3.08291 18.2314 2.79375 17.9422 2.79375 17.5854C2.79375 17.2286 3.08297 16.9394 3.43975 16.9394H14.0566C14.4135 16.9394 14.7026 17.2286 14.7026 17.5854C14.7026 17.9422 14.4135 18.2314 14.0566 18.2314ZM17.9907 15.3587H15.0168C14.66 15.3587 14.3708 15.0695 14.3708 14.7127C14.3708 14.356 14.66 14.0667 15.0168 14.0667H17.9907C18.3476 14.0667 18.6367 14.356 18.6367 14.7127C18.6367 15.0695 18.3476 15.3587 17.9907 15.3587ZM23.7793 15.3587H20.8054C20.4485 15.3587 20.1594 15.0695 20.1594 14.7127C20.1594 14.356 20.4486 14.0667 20.8054 14.0667H23.7793C24.1361 14.0667 24.4253 14.356 24.4253 14.7127C24.4253 15.0695 24.136 15.3587 23.7793 15.3587ZM26.5603 5.92186H19.5461C19.1892 5.92186 18.9001 5.63264 18.9001 5.27586C18.9001 4.91909 19.1893 4.62987 19.5461 4.62987H26.5603C26.9171 4.62987 27.2063 4.91909 27.2063 5.27586C27.2063 5.63264 26.917 5.92186 26.5603 5.92186Z" fill="white"/>
</svg>
