<svg width="16" height="17" viewBox="0 0 16 17" fill="none" xmlns="http://www.w3.org/2000/svg">
<path d="M15.9713 2.80722C15.957 1.85114 15.6703 0.895055 14.8675 0.357259C14.079 -0.165599 13.0324 -0.150661 12.416 0.641095C12.373 0.70085 12.2583 0.82036 12.287 0.909993C12.3156 0.999626 12.5163 0.984687 12.588 1.0295C12.7314 1.1042 12.7887 1.25359 12.7744 1.40297C12.7744 1.58224 12.7744 3.33008 12.76 5.72028C10.7387 5.70534 8.70294 5.6904 6.68156 5.67546C6.63855 5.15261 6.62421 4.56999 6.66722 3.92763C6.69589 3.34501 6.76757 2.74746 6.88226 2.16485C6.92527 1.91089 6.98262 1.65693 7.0543 1.40297C7.12598 1.13408 7.31235 0.790483 7.29801 0.506646C7.29801 0.46183 7.28367 0.431951 7.26934 0.402073C7.21199 0.327379 7.11164 0.342318 7.02562 0.372196C6.50952 0.506645 6.00776 0.790482 5.60635 1.16395C5.49166 1.28346 5.16193 1.59718 4.86088 2.14991C4.08673 3.59897 4.01505 5.66053 4.01505 5.66053C3.97204 6.99008 3.92903 9.694 5.29096 12.5025C5.29096 12.5025 6.25148 14.4744 7.6134 14.9524C7.88579 15.0421 7.95747 14.9823 7.98614 14.9524C8.08649 14.8031 7.85712 14.564 7.79977 14.4595C7.67075 14.2653 7.57039 14.0412 7.48438 13.832C7.29801 13.3839 7.16898 12.9058 7.08297 12.4129C6.79625 10.9489 6.60988 9.45498 6.65289 7.9611H12.7887C12.7887 9.84338 12.7887 11.7257 12.7887 13.608C12.7887 13.9814 12.9321 14.34 13.2618 14.5192C13.4625 14.6238 13.6919 14.6686 13.9069 14.6985C14.294 14.7433 14.6954 14.7732 15.0825 14.6985C15.3119 14.6537 15.5269 14.564 15.6989 14.3997C15.9713 14.1308 15.9713 13.7872 15.9713 13.4287C15.9713 10.5903 16 7.76689 16 4.92852C15.9857 4.21146 15.9857 3.50934 15.9713 2.80722Z" fill="white"/>
<path d="M7.75135 16.1716C4.95869 15.4173 3.87714 12.7256 3.27987 10.3741C3.15073 9.85644 3.02159 9.3536 2.95702 8.83596C2.73102 7.25348 2.74717 5.52311 3.29601 3.99979C2.87631 4.08852 2.6826 4.42868 2.42432 4.69489C1.52034 5.68579 1.43962 6.85417 1.40734 8.00775C1.31048 10.7142 2.37589 12.6369 2.61803 13.051C3.16687 13.9827 3.748 14.5891 3.92557 14.7666C4.53899 15.4025 5.16854 15.8314 5.65282 16.1272C5.28154 16.0385 4.7327 15.8758 4.16771 15.5504C3.63501 15.2546 3.26373 14.9145 3.00545 14.663C2.65031 14.2489 2.39203 13.8644 2.23061 13.613C1.79476 12.9031 1.22977 12.0305 0.955347 10.8621C0.874635 10.5368 0.826208 10.1966 0.680925 10.1818C0.471072 10.167 0.245077 10.8326 0.196649 10.9804C0.035224 11.4537 -0.0132043 11.8826 0.0029382 12.1045C0.0190807 12.9918 0.745495 14.7222 2.47274 15.8906C2.47274 15.8906 3.99014 16.911 6.58909 16.9998C6.70209 16.9998 7.33164 16.985 7.78363 16.6892C7.99349 16.5117 8.15491 16.2899 7.75135 16.1716Z" fill="white"/>
</svg>
