<svg width="23" height="31" viewBox="0 0 23 31" fill="none" xmlns="http://www.w3.org/2000/svg">
<g clip-path="url(#clip0_450_2534)">
<path fill-rule="evenodd" clip-rule="evenodd" d="M2.36823 0.353839C2.36823 0.353839 2.13305 0.876001 2.10815 1.01599C2.09888 1.06791 2.08255 1.1388 2.07184 1.17346C2.0611 1.20817 2.04496 1.27614 2.036 1.32452C2.02701 1.37293 1.97658 1.56544 1.92391 1.75237C1.83761 2.05863 1.69787 2.57493 1.64787 2.77198C1.61863 2.88735 1.50697 3.47109 1.48932 3.60096C1.48071 3.66429 1.46558 3.77554 1.45573 3.84823C1.44588 3.92093 1.41923 4.10759 1.39646 4.26306C1.32106 4.7788 1.34748 5.38403 1.49219 6.4539C1.5027 6.5315 1.52287 6.63754 1.57119 6.86929C1.61588 7.08349 1.72203 7.45391 1.78219 7.60568C1.79867 7.64722 1.83447 7.74857 1.86182 7.83094C1.96786 8.15049 2.1799 8.52971 2.4583 8.89756C2.84694 9.41114 2.89817 9.46827 3.38443 9.93053L3.80406 10.3294L3.79913 10.956L3.7942 11.5826L3.42043 12.1809C3.0641 12.7514 3.04603 12.7907 3.0321 13.0252C3.02279 13.1825 3.03749 13.3187 3.07294 13.4028C3.12228 13.52 3.12038 13.5696 3.05553 13.8538C3.01546 14.0295 2.92125 14.2709 2.92125 14.2709C2.92125 14.2709 2.40982 15.2799 2.17835 15.5795C1.69512 16.2051 0.558419 17.2358 0.558419 17.2358C0.497603 17.3262 0.499154 17.3375 0.590805 17.4724C0.76984 17.7358 1.08494 18.0384 1.27014 18.1249C1.37664 18.1746 1.56573 18.2202 1.71812 18.2329L1.98182 18.2549L1.99668 19.0668C2.00633 19.5962 2.03275 19.9839 2.07254 20.1808C2.20329 20.8278 2.18882 21.6704 2.04012 22.069C1.91623 22.4011 1.84246 22.5686 1.7977 22.6196C1.76889 22.6523 1.75078 22.6901 1.7453 22.7034C1.73983 22.7166 1.65664 22.8737 1.54827 23.0523C1.4399 23.231 1.36082 23.4014 1.37253 23.4311C1.40294 23.5084 1.7346 23.4997 2.36588 23.4052C2.65386 23.3621 2.92404 23.3242 2.96628 23.321C3.02764 23.3164 3.06065 23.3644 3.13066 23.5607C3.17883 23.6957 3.21847 23.8361 3.2187 23.8727C3.21897 23.9094 3.23577 23.9688 3.25605 24.0049C3.27637 24.041 3.34824 24.2234 3.41585 24.4103C3.54151 24.7578 3.55618 24.7898 3.83311 25.3229C4.47524 26.5589 5.4983 27.6063 6.38983 27.9405C6.51255 27.9865 6.64783 28.0376 6.6905 28.054C6.88769 28.1301 7.13467 28.1752 7.42343 28.1881C7.59626 28.1958 7.75055 28.2029 7.7663 28.2038C7.78201 28.2047 7.90418 28.2956 8.0378 28.4057C8.84854 29.0738 10.4274 30.0991 11.4332 30.6106C11.6131 30.7022 11.6479 30.7086 11.721 30.6642C11.7667 30.6364 11.884 30.5706 11.9817 30.518C12.7253 30.1177 13.8082 29.433 14.5009 28.9253C14.7435 28.7475 14.9878 28.5688 15.0439 28.5282C15.1 28.4876 15.2144 28.3984 15.2982 28.33C15.4291 28.2232 15.4801 28.2055 15.6586 28.2055C15.8706 28.2055 16.4017 28.1161 16.5421 28.0568C16.5848 28.0388 16.7181 27.9872 16.8383 27.9422C17.6019 27.6563 18.4764 26.8494 19.1108 25.8453C19.2814 25.5754 19.6708 24.8344 19.7458 24.6369C19.8754 24.2958 19.9803 24.0001 20.0338 23.825C20.0687 23.7108 20.1133 23.5782 20.1329 23.5306C20.1525 23.4829 20.1686 23.4087 20.1686 23.3656C20.1686 23.3002 20.1859 23.2911 20.2752 23.3097C20.3339 23.3219 20.4953 23.3486 20.634 23.3692C21.5736 23.5082 21.8364 23.5215 21.8364 23.4301C21.8364 23.3794 21.4427 22.6088 21.3726 22.5223C21.3356 22.4765 21.1882 22.0686 21.1611 21.9368C21.1505 21.8849 21.1332 21.7999 21.1228 21.748C21.0429 21.3492 21.07 20.8052 21.2197 19.8032C21.2414 19.6578 21.2543 19.25 21.2484 18.8969L21.2377 18.2549L21.503 18.2293C21.8174 18.1989 21.9808 18.1244 22.2242 17.9481C22.4752 17.7664 22.7181 17.3344 22.7181 17.3344C22.7181 17.3344 22.5852 17.2456 22.5058 17.1815C22.3117 17.0249 22.3144 16.9553 22.0691 16.7188C21.595 16.2616 21.5141 16.171 21.0899 15.6213C20.7063 15.1244 20.3179 14.3733 20.1922 13.8851C20.1332 13.6562 20.1327 13.6197 20.1866 13.494C20.2691 13.302 20.261 13.0273 20.1666 12.8107C20.0683 12.5852 19.9357 12.3324 19.9025 12.3072C19.8889 12.2968 19.8365 12.2119 19.7861 12.1184C19.7357 12.0249 19.6353 11.8408 19.563 11.7093L19.4316 11.4701V10.9212V10.3722L19.7904 10.0249C20.5261 9.31273 21.0443 8.64133 21.2643 8.11548C21.6833 7.114 21.8499 6.23816 21.8499 5.03778C21.8499 4.04551 21.7591 3.36679 21.5039 2.45099C21.3546 1.91509 21.1172 0.998354 21.0418 0.666528C21.0052 0.505506 20.9584 0.363629 20.9379 0.351318C20.9379 0.351318 20.876 0.635859 20.7997 0.804642C20.6468 1.14253 20.4654 1.57927 20.4378 1.67685C20.4201 1.73916 20.3862 1.85811 20.3623 1.94119C20.3385 2.02427 20.3134 2.12623 20.3065 2.16777C20.2894 2.27037 20.0966 2.83161 20.0505 2.91306C20.0301 2.94913 20.0134 2.9969 20.0134 3.01918C20.0134 3.13658 19.2955 4.42526 19.1468 4.57484C19.1208 4.60101 19.0134 4.73284 18.908 4.86784C18.6097 5.25027 18.3559 5.49728 17.9772 5.77393C17.4233 6.17849 17.5212 6.18884 16.9961 5.6702C16.4848 5.16526 16.0547 4.82785 15.5143 4.50773C15.093 4.25819 14.7893 4.14178 14.3114 3.92823C14.2222 3.88836 14.1686 3.86141 14.075 3.83188C13.9813 3.80235 13.8261 3.74994 13.7301 3.71538C13.5263 3.64205 13.0777 3.53883 12.6493 3.48298C12.5361 3.46823 12.5004 3.45467 12.3507 3.4425C12.2009 3.43033 12.0587 3.41959 11.8678 3.41959C11.677 3.41959 11.5294 3.41959 11.4738 3.41959C11.4183 3.41959 11.1699 3.41959 11.0984 3.42449C11.0269 3.4294 10.7385 3.4493 10.3945 3.51652C10.2772 3.53948 10.1463 3.56263 10.1037 3.56799C9.90282 3.59318 9.25432 3.78336 9.0823 3.86749C8.97657 3.91919 8.88912 3.94778 8.85498 3.96152C8.82084 3.97527 8.16944 4.24516 7.93975 4.37862C7.81618 4.45037 7.65161 4.54599 7.57404 4.59111C7.49643 4.63624 7.38759 4.70561 7.28527 4.78068C6.99531 4.99343 6.74449 5.19181 6.58337 5.3454C6.37587 5.54327 5.93495 6.00002 5.93495 6.00002C5.81347 6.11052 5.80886 6.11146 5.68843 6.05138C5.53003 5.9723 5.08089 5.64837 5.08089 5.64837C5.08089 5.64837 4.45694 5.06017 4.34403 4.90519C4.29128 4.83272 4.22717 4.74794 4.20161 4.71679C4.07474 4.56226 3.87853 4.29867 3.87853 4.28274C3.87853 4.27284 3.82849 4.1838 3.76736 4.08482C3.57344 3.77093 3.37582 3.393 3.28076 3.15422C3.02035 2.50005 2.98955 2.40704 2.79213 1.67685C2.7528 1.53146 2.6916 1.31054 2.65611 1.18592C2.62062 1.06131 2.57423 0.891371 2.55298 0.808292C2.53176 0.725212 2.49953 0.623251 2.48134 0.581712C2.46319 0.540172 2.36823 0.353839 2.36823 0.353839ZM2.3525 2.82863C2.30712 2.96136 2.22338 3.42004 2.13192 4.03705C2.01812 4.80497 2.12762 6.3698 2.34862 7.13364C2.38166 7.24787 2.41304 7.35833 2.41832 7.3791C2.42359 7.39987 2.48355 7.55594 2.55155 7.72592C2.79745 8.34066 3.04288 8.66392 3.86573 9.45661C4.19979 9.77846 4.46497 10.0652 4.47905 10.1198C4.4927 10.1727 4.4984 10.5463 4.49177 10.9501L4.47971 11.6841L4.33418 11.9673C4.25417 12.1231 4.09371 12.395 3.97762 12.5715C3.72427 12.9568 3.68844 13.088 3.78144 13.2888C3.91665 13.5807 3.7297 14.2682 3.27983 15.1333C3.02663 15.6202 2.23346 16.6314 1.69795 17.1501C1.55335 17.2901 1.43502 17.4212 1.43502 17.4413C1.43502 17.5578 2.30673 17.5832 2.77495 17.4804C2.86133 17.4614 2.94286 17.461 2.96178 17.4794C2.98071 17.4978 2.95197 17.6001 2.89592 17.7136C2.84124 17.8244 2.77511 18.0255 2.749 18.1605C2.67496 18.5433 2.69722 19.5904 2.79473 20.313C2.8595 20.7932 2.87362 21.04 2.85617 21.3893C2.83305 21.8514 2.72468 22.3689 2.61771 22.5278C2.54437 22.6369 2.5441 22.6921 2.61686 22.6921C2.7222 22.6921 3.1101 22.5049 3.24663 22.3881C3.47209 22.1954 3.48966 22.2188 3.68692 22.9758C3.86204 23.6476 3.95788 23.9637 4.05329 24.1837C4.08033 24.2461 4.15181 24.416 4.21216 24.5614C4.27251 24.7068 4.36858 24.9107 4.4256 25.0145C4.48265 25.1184 4.56178 25.2631 4.60145 25.3361C4.78076 25.6659 5.14566 26.1467 5.4694 26.4798C5.94961 26.9738 6.28356 27.2021 6.80868 27.3953C7.05066 27.4844 7.47727 27.5321 7.45229 27.4675C7.44465 27.4476 7.31752 27.1984 7.26447 27.0625C7.19134 26.8752 7.15224 26.6345 7.15224 26.6345C7.15224 26.6345 7.27259 26.7825 7.37088 26.8665C7.9235 27.3386 8.19896 27.6906 8.76554 28.115C9.59086 28.7332 11.4863 29.9426 11.6299 29.9426C11.6574 29.9426 11.7529 29.894 11.842 29.8347C11.9312 29.7753 12.0625 29.6975 12.1339 29.6619C12.2927 29.5826 13.1093 29.0703 13.473 28.8219C14.8721 27.8659 15.1685 27.6802 15.8825 26.7872C15.9597 26.6906 16.0777 26.5026 16.0777 26.5026C16.0777 26.5026 15.9914 27.1088 15.8235 27.3943C15.8091 27.4188 15.7858 27.4349 15.7858 27.4568C15.7858 27.4822 15.8813 27.4913 16.0502 27.482C16.4276 27.4613 17.0206 27.1646 17.4721 26.7705C17.7424 26.5347 18.3069 25.9121 18.3069 25.8498C18.3069 25.84 18.3928 25.7056 18.4979 25.5512C18.6029 25.3967 18.7783 25.0768 18.8876 24.8403C19.132 24.3116 19.1429 24.2865 19.1914 24.146C19.2129 24.0837 19.2436 23.9987 19.2598 23.9572C19.276 23.9156 19.2929 23.8689 19.2974 23.8533C19.3019 23.8377 19.31 23.8165 19.3153 23.8061C19.3206 23.7957 19.3278 23.7745 19.3312 23.7589C19.3706 23.5784 19.7037 22.4938 19.7037 22.4938C19.7037 22.4938 19.7526 22.2456 19.9819 22.3961C20.2692 22.5846 20.5392 22.7066 20.6104 22.68C20.6647 22.6597 20.6646 22.6418 20.6101 22.4955C20.5769 22.4063 20.5451 22.3164 20.5396 22.2956C20.5339 22.2748 20.5192 22.2323 20.5067 22.2012C20.3611 21.8378 20.3203 20.987 20.4192 20.3787C20.5509 19.5688 20.5814 18.7706 20.4989 18.2927C20.4631 18.085 20.4248 17.862 20.4139 17.7972C20.395 17.6856 20.4019 17.6779 20.5431 17.6522C20.6251 17.6373 20.9154 17.6153 21.1716 17.5885C21.4278 17.5616 21.817 17.5217 21.817 17.4511C21.817 17.4261 21.6657 17.2568 21.4808 17.075C21.0948 16.6954 20.7875 16.3654 20.4299 15.8475C20.0281 15.2657 19.6863 14.575 19.5847 14.252C19.5586 14.1689 19.5226 14.0585 19.5048 14.0065C19.487 13.9546 19.465 13.8697 19.456 13.8177C19.447 13.7658 19.4273 13.6604 19.4123 13.5835C19.3907 13.4732 19.4021 13.4202 19.4665 13.3322C19.5113 13.2709 19.548 13.1878 19.548 13.1477C19.548 13.0751 19.1851 12.3483 19.1292 12.3089C19.1131 12.2976 19.0223 12.1439 18.9272 11.9673L18.7545 11.6463L18.7411 10.8828L18.7278 10.1194L19.2684 9.59482C19.5656 9.30635 19.8797 8.97701 19.9662 8.86301C20.0527 8.749 20.1476 8.63186 20.177 8.60274C20.2432 8.53711 20.4789 8.20381 20.4789 8.17571C20.4789 8.16438 20.5322 8.04169 20.5975 7.90299C20.7209 7.64057 20.8757 7.21026 20.9286 6.98258C20.9455 6.90989 20.9613 6.84192 20.9637 6.83153C21.0081 6.64003 21.0234 6.56768 21.0396 6.47278C21.0502 6.41047 21.0674 6.31701 21.0779 6.26508C21.1546 5.88341 21.1851 5.00949 21.1404 4.47133C21.0811 3.75813 20.9163 2.78108 20.8584 2.79985C20.8391 2.80612 20.7795 2.93837 20.726 3.09372C20.5199 3.6925 19.9475 4.67385 19.4453 5.28924C18.927 5.92434 18.0987 6.58388 17.4647 6.86635C17.2279 6.97186 17.2198 6.96816 16.9754 6.64275C16.7624 6.35915 16.2428 5.84085 15.9603 5.63024C15.8323 5.53478 15.7189 5.44721 15.7082 5.43565C15.5387 5.25159 14.3393 4.62823 13.8271 4.45792C12.3014 3.95069 10.9036 3.95454 9.39573 4.47012C9.09696 4.57227 8.35825 4.91033 8.0674 5.07796C7.44248 5.43822 6.67355 6.10361 6.26222 6.64007C6.13512 6.80581 6.00209 6.94221 5.96656 6.94312C5.93103 6.94407 5.77112 6.8773 5.61117 6.79483C4.74294 6.34695 4.02595 5.67696 3.34685 4.67903C3.07263 4.27609 2.68609 3.56406 2.70622 3.49892C2.71103 3.48337 2.69986 3.4706 2.6814 3.4706C2.66294 3.4706 2.60844 3.35591 2.56023 3.2157C2.44388 2.87708 2.37794 2.75423 2.3525 2.82863ZM2.76882 4.91724C2.77964 5.00428 2.79135 5.08902 2.80875 5.1985C2.81728 5.25215 2.82333 5.28499 2.83126 5.33873C2.84177 5.41003 2.84775 5.42508 2.87409 5.51544C2.90042 5.60581 2.92606 5.70026 2.93114 5.72529C2.96962 5.91638 3.09986 6.1945 3.26726 6.44317C3.37609 6.60484 3.47531 6.74562 3.48772 6.756C3.50013 6.76639 3.5578 6.84286 3.61587 6.92594C3.67393 7.00902 3.76116 7.11948 3.80968 7.1714C3.92026 7.28971 4.12633 7.66021 4.09728 7.68849C4.08537 7.70009 4.0277 7.6522 3.96913 7.58211C3.82644 7.41135 3.45181 7.10328 3.40006 7.05811C3.34832 7.01294 3.23821 6.91017 3.18104 6.84312C3.12387 6.77608 3.03435 6.68048 2.98021 6.68048C2.90163 6.68048 3.04711 7.21612 3.18143 7.53079C3.22167 7.62508 3.25969 7.70983 3.29674 7.76693C3.33379 7.82403 3.32443 7.80911 3.37431 7.88192C3.42419 7.95472 3.74588 8.39901 3.95749 8.59266C4.24672 8.85738 4.48281 9.02788 4.81074 9.2088C4.96313 9.29286 5.09574 9.36167 5.1054 9.36167C5.11506 9.36167 5.33935 9.46348 5.60384 9.58795C5.87154 9.71389 6.11123 9.80425 6.14459 9.79179C6.23046 9.75973 6.49544 9.36035 6.59947 9.10624C6.72925 8.78914 6.72482 8.39448 6.5883 8.11095C6.47392 7.87349 6.25144 7.61489 6.09548 7.53816C6.03874 7.51025 5.95745 7.46867 5.91478 7.44579C5.79668 7.38238 5.47344 7.24693 5.44008 7.24685C5.42383 7.24681 5.27094 7.17699 5.10028 7.09168C4.8619 6.9725 4.69671 6.84785 4.38743 6.55363C3.84176 6.03454 3.51731 5.70626 3.47465 5.62994C3.4551 5.59505 3.42721 5.55797 3.41267 5.54758C3.37567 5.52115 3.00531 4.94348 2.94258 4.87736C2.87986 4.81123 2.82801 4.76471 2.82801 4.76471C2.7575 4.75954 2.75121 4.77566 2.76882 4.91724ZM11.0869 4.89869C11.0869 4.89869 10.8223 4.93777 10.7387 4.96846C10.6551 4.99915 10.6162 5.00582 10.603 5.08856C10.5897 5.17129 10.6162 5.43429 10.6162 5.43429C10.6159 5.48384 10.6394 5.6574 10.7672 6.54831C10.7821 6.65216 10.8047 9.37417 10.8174 12.5972L10.8406 18.4573L11.2163 18.8376C11.423 19.0468 11.6049 19.2179 11.6207 19.2179C11.6441 19.2179 12.2038 18.6662 12.3832 18.4663C12.4201 18.4252 12.4361 17.0722 12.4543 12.4242C12.4755 7.04131 12.4846 6.39295 12.544 6.01962C12.6696 5.23094 12.6695 5.22244 12.5398 5.15711C12.2267 4.99952 11.8387 4.89756 11.4805 4.87887C11.2779 4.8683 11.2414 4.87629 11.0869 4.89869ZM9.21456 5.41907C9.06691 5.49241 8.82255 5.63198 8.67156 5.7293C8.52061 5.82665 8.37962 5.91324 8.35829 5.92178C8.21323 5.97978 7.5541 6.60348 7.27496 6.94682C7.07871 7.18828 7.07184 7.26675 7.22217 7.55209C7.34315 7.78173 7.35056 7.81938 7.36316 8.26653C7.3862 9.08317 7.16719 9.48346 6.70419 10.0881C6.60102 10.2229 6.41711 10.4153 6.41711 10.4153C6.41711 10.4153 6.86077 10.2775 6.96976 10.1714C7.0298 10.1129 7.0979 10.099 7.09748 10.1453C7.0967 10.2318 6.78742 10.5863 6.59268 10.724C6.40131 10.8592 6.21909 10.91 5.92432 10.91C5.70196 10.91 5.66461 10.92 5.64328 10.9855C5.62974 11.027 5.63002 11.0959 5.6439 11.1385C5.65783 11.1811 5.6745 11.2929 5.68102 11.387C5.69479 11.5855 5.81743 11.7349 6.04367 11.8286C6.73374 12.1144 7.31677 12.2985 7.97043 12.4372C8.80371 12.614 9.03037 12.6522 9.68511 12.727C10.135 12.7783 10.1697 12.7667 10.2445 12.5391C10.3093 12.3422 10.3379 8.38239 10.2809 7.50561C10.2299 6.72024 10.0817 5.9927 9.90115 5.64199C9.82164 5.48746 9.61693 5.28294 9.54335 5.28452C9.51019 5.28524 9.36226 5.34577 9.21456 5.41907ZM13.2865 5.73254C13.2325 5.8177 13.1078 6.27128 13.0727 6.51054C12.9396 7.41799 12.9331 7.60798 12.9406 10.3435C12.9454 12.115 12.9538 12.3813 13.0089 12.5055C13.0471 12.5915 13.0983 12.647 13.1391 12.6468C13.2715 12.6464 14.005 12.2466 14.2699 12.0306C14.5663 11.7887 14.5814 11.7699 14.8088 11.3619C15.2921 10.4945 15.3208 9.41673 14.8947 8.14796C14.7555 7.73366 14.4232 7.01113 14.2385 6.72115C13.7885 6.01475 13.378 5.58844 13.2865 5.73254ZM5.33125 12.4871C5.28862 12.5163 4.96453 13.008 4.96453 13.0435C4.96453 13.0548 4.91888 13.1312 4.8631 13.2133C4.66886 13.4991 4.79406 13.6158 5.74932 14.0394C6.4221 14.3378 6.41822 14.3362 6.94261 14.5229C8.15362 14.9541 8.664 15.0684 9.63124 15.1249C10.2762 15.1625 10.3164 15.1169 10.3167 14.3454C10.317 13.8026 10.2923 13.7573 9.97733 13.7241C9.72347 13.6973 9.07893 13.6117 8.64918 13.5477C8.41053 13.5122 6.96471 13.0796 6.64202 12.9472C6.594 12.9275 6.5155 12.8957 6.46748 12.8766C6.41946 12.8575 6.18151 12.7555 5.93863 12.65C5.49845 12.4588 5.40804 12.4346 5.33125 12.4871ZM15.4173 13.3359C15.332 13.3564 15.2273 13.3873 15.1846 13.4045C15.0222 13.4698 14.4329 13.5879 14.0792 13.626C13.3211 13.7076 13.1428 13.7371 13.0498 13.7964C12.9556 13.8565 12.9544 13.8641 12.9544 14.4162C12.9544 14.9517 12.9582 14.9787 13.0442 15.0574C13.1183 15.1251 13.1802 15.1394 13.3998 15.1394C13.7411 15.1394 14.158 15.0704 14.2403 15.0002C14.2661 14.9782 14.1903 14.1724 14.1903 14.1724C14.1903 14.1724 14.3497 14.973 14.3805 14.9917C14.4652 15.0432 14.8458 14.969 15.5694 14.7599C15.9937 14.6372 16.0964 14.5719 16.0953 14.4255C16.0944 14.3037 15.8065 13.4155 15.7443 13.3425C15.6934 13.2828 15.6424 13.2818 15.4173 13.3359ZM4.42859 14.2815C4.4059 14.3081 4.37859 14.3718 4.36789 14.4231C4.30711 14.7147 3.98844 15.346 3.71357 15.7193C3.3446 16.2205 2.66647 17.0221 2.66647 17.0221C2.73326 17.0565 2.88778 17.0399 3.27734 16.9567C3.67335 16.8721 3.76465 16.8452 3.91673 16.768C4.04724 16.7018 4.07245 16.6983 4.07245 16.7469C4.07245 16.8349 3.96141 17.0275 3.80165 17.2164C3.60559 17.4483 3.47279 17.6824 3.38106 17.9578C3.2768 18.2709 3.26404 19.2204 3.35879 19.6144C3.40375 19.8012 3.42636 20.11 3.43594 20.6675C3.44343 21.1012 3.45727 21.4637 3.46677 21.473C3.52131 21.5261 3.64814 21.3729 3.80673 21.0625C4.00877 20.6671 4.09379 20.4055 4.13323 20.0581C4.14797 19.9283 4.17283 19.8221 4.18846 19.8221C4.30226 19.8221 4.22302 21.569 4.08956 22.0029C4.04907 22.1345 4.15313 22.1098 4.36812 21.9368C4.47137 21.8538 4.56492 21.7858 4.57597 21.7858C4.58703 21.7858 4.59606 22.1044 4.59606 22.4938C4.59606 22.8833 4.60816 23.2529 4.6229 23.3152C4.63768 23.3775 4.66673 23.5219 4.68744 23.6362C4.72316 23.8333 4.83273 24.1624 4.94514 24.4103C5.15466 24.8723 5.25422 25.0517 5.44811 25.3166C5.68195 25.6361 6.42388 26.3929 6.50328 26.3929C6.50328 26.3929 6.43429 26.0655 6.44407 25.7304C6.4578 25.2612 6.54028 25.2335 6.67979 24.9651C6.82586 24.6842 7.05291 24.3729 7.08732 24.4064C7.09775 24.4166 7.11268 24.5066 7.12044 24.6065C7.17722 25.3348 7.5408 26.0198 8.22987 26.6967C8.75154 27.2091 8.91649 27.3554 9.00795 27.3868C9.1024 27.4193 9.09363 27.3681 8.95753 27.0934C8.85618 26.8888 8.8364 26.7987 8.8193 26.4633C8.7987 26.0595 8.83338 25.7535 8.90129 25.7398C8.92262 25.7355 8.95059 25.8391 8.96343 25.9699C8.98875 26.2276 9.25226 26.801 9.44251 27.0124C9.49685 27.0728 9.54141 27.1323 9.54157 27.1446C9.54211 27.1838 9.97733 27.6118 10.2498 27.8411C10.5458 28.0903 10.6264 28.0978 10.6289 27.8763C10.6313 27.673 10.7206 27.3256 10.7751 27.3079C10.8059 27.2979 10.8212 27.346 10.8212 27.4526C10.8212 27.5569 10.8672 27.7052 10.9539 27.8806C11.0928 28.1615 11.4653 28.5991 11.6011 28.6411C11.7847 28.6979 12.3327 28.2043 12.525 27.809C12.8151 27.2127 12.8395 27.1378 12.9559 26.4873C13.049 25.9668 13.0581 24.7912 12.9733 24.2215C12.8875 23.6449 12.8943 23.5721 13.0565 23.3336C13.1339 23.2196 13.2512 23.0707 13.3172 23.0026L13.4371 22.8789L13.36 22.591C13.2672 22.244 13.2157 22.2006 13.031 22.3136C12.4992 22.6388 12.3502 22.7069 12.1698 22.7073C12.0213 22.7076 11.9646 22.6875 11.8726 22.6016C11.7729 22.5086 11.7386 22.4984 11.5929 22.5182C11.4901 22.5322 11.3866 22.5783 11.3213 22.6392C11.2286 22.7258 11.1956 22.7345 11.0476 22.7115C10.9551 22.6971 10.8143 22.6444 10.7347 22.5943C10.6552 22.5443 10.5827 22.5033 10.5737 22.5033C10.5646 22.5033 10.4491 22.4438 10.317 22.3711C10.1849 22.2984 10.0608 22.2389 10.0411 22.2389C9.98291 22.2389 9.81206 22.6801 9.81346 22.8269C9.8138 22.867 9.89878 22.9884 10.0023 23.0967C10.1058 23.205 10.1752 23.3085 10.1752 23.3085L10.2191 23.3711C10.2191 23.3711 10.2782 23.4442 10.2782 23.4753C10.2782 23.539 10.2854 23.5406 9.81276 23.3741C9.5802 23.2921 9.42311 23.2599 9.27945 23.2647C9.16748 23.2684 9.07583 23.2983 9.07583 23.2983C9.07583 23.2983 8.92367 23.3693 8.90067 23.3331C8.88965 23.3157 8.92596 23.2366 8.98134 23.1573C9.12082 22.9576 9.26797 22.6369 9.3334 22.39C9.4121 22.0932 9.54998 21.8345 9.7526 21.6033C9.89921 21.4361 9.92198 21.3902 9.88847 21.3292C9.8586 21.2749 9.86116 21.2521 9.89836 21.2408C10.0388 21.1984 10.3479 21.0934 10.4333 21.0592C10.5528 21.0114 10.6359 20.9801 10.86 20.8984C10.956 20.8634 11.1612 20.7746 11.316 20.7011L11.5974 20.5675L11.8008 20.6528C11.9127 20.6998 12.1263 20.7872 12.2757 20.8471C12.425 20.9071 12.5821 20.972 12.6247 20.9914C12.6674 21.0108 12.7808 21.0525 12.8768 21.084C13.3735 21.2471 13.3626 21.2406 13.349 21.3669C13.3421 21.4311 13.3536 21.4837 13.3745 21.4837C13.4316 21.4837 13.6909 21.8503 13.7873 22.0673C13.8339 22.1721 13.9033 22.3573 13.9417 22.4788C13.98 22.6004 14.0785 22.8336 14.1604 22.9969C14.2768 23.2287 14.3502 23.3229 14.4949 23.4263C15.0445 23.8189 15.6633 23.9741 16.1725 23.8471C16.4571 23.7761 16.6536 23.6767 16.668 23.5964C16.6736 23.5651 16.5929 23.4933 16.4792 23.4285C16.2268 23.2845 15.758 22.8225 15.6269 22.5886C15.3457 22.087 15.2028 21.8223 15.2038 21.8048C15.2044 21.7942 15.1775 21.7218 15.1439 21.644C15.1104 21.5662 15.0391 21.3411 14.9854 21.1438C14.9317 20.9465 14.8744 20.7596 14.8579 20.7284C14.8415 20.6973 14.6877 20.5953 14.5162 20.5018C14.2068 20.3332 13.3407 19.7919 13.3035 19.744C13.2866 19.7223 13.1795 19.6808 13.0514 19.6463C13.03 19.6406 12.8853 19.6152 12.7297 19.5899L12.4469 19.5439L12.1479 19.8301C11.9835 19.9876 11.7942 20.1431 11.7271 20.1758C11.6096 20.2331 11.6 20.2315 11.4556 20.1289C11.3733 20.0705 11.1949 19.918 11.0592 19.7902C10.7891 19.5358 10.7727 19.5314 10.3945 19.6105C10.0849 19.6752 10.0839 19.6871 9.9073 19.7821C9.8334 19.8219 9.78433 19.8665 9.72751 19.8976C9.67065 19.9288 9.44743 20.0692 9.23147 20.2097C9.01555 20.3501 8.73428 20.5164 8.60648 20.5793C8.36139 20.6997 8.3541 20.7084 8.32288 20.9172C8.31202 20.9899 8.26633 21.1514 8.22134 21.276C8.17634 21.4006 8.13345 21.5301 8.12604 21.5637C8.10125 21.6764 7.83736 22.1981 7.65561 22.4938C7.45784 22.8157 7.1491 23.1485 6.83761 23.3756C6.55676 23.5804 6.48885 23.5677 6.61316 23.3337C6.74266 23.0898 6.84584 22.403 6.90235 21.4081C6.9409 20.73 6.91833 20.515 6.79095 20.3473C6.75133 20.2951 6.63283 20.2621 6.63068 20.2348C6.62866 20.2089 6.74109 20.1885 6.7683 20.148C6.8254 20.0632 6.82125 20.0459 6.69286 19.8363C6.50103 19.523 6.02625 19.0132 5.88569 18.9695C5.84834 18.9579 5.81782 18.9264 5.81782 18.8994C5.81782 18.8644 5.8815 18.8516 6.04084 18.8547L6.26385 18.8591L6.25412 18.7373C6.2488 18.6703 6.17977 18.5004 6.10076 18.3597C5.85036 17.9138 5.81848 17.8413 5.69611 17.4396C5.59189 17.0975 5.57618 16.9877 5.57517 16.5933C5.57428 16.2369 5.59073 16.0918 5.6522 15.9136C5.74156 15.6545 5.9033 15.2706 6.0223 15.035C6.07097 14.9387 6.08908 14.862 6.0674 14.8443C6.04747 14.828 5.8566 14.7585 5.64328 14.6897C5.26302 14.5671 5.17021 14.531 4.72452 14.3318C4.46764 14.2169 4.48161 14.2193 4.42859 14.2815ZM7.53091 15.5464C7.41358 15.5845 7.56679 15.8738 7.83204 16.1149C8.00313 16.2705 8.10828 16.3241 8.36558 16.3872C8.59628 16.4437 8.81305 16.4113 9.30854 16.2463C9.68938 16.1194 9.73519 16.0111 9.73519 16.0111C9.73519 16.0111 9.53292 15.9849 9.41626 15.9436C9.29802 15.9017 9.23632 15.8514 9.13393 15.7983C8.96436 15.7105 8.7463 15.6402 8.37768 15.5544C8.24445 15.5234 7.61996 15.5175 7.53091 15.5464ZM14.5462 15.6135C14.3657 15.6665 14.1214 15.7599 14.0032 15.8208C13.8615 15.894 13.7713 15.9135 13.6391 15.9771C13.5516 16.0191 13.4309 16.0572 13.4309 16.0572C13.4309 16.0572 14.2842 16.4156 14.533 16.4157C14.8078 16.4159 15.0394 16.3356 15.1809 16.2163C15.3225 16.097 15.657 15.7209 15.655 15.6392C15.6532 15.5681 15.6328 15.5545 15.5351 15.5594C15.4703 15.5625 15.2951 15.5543 15.1458 15.5411C14.919 15.521 14.8203 15.5329 14.5462 15.6135ZM6.70588 15.5974C6.6731 15.6649 6.5416 15.8846 6.52698 15.9417C6.52698 15.9417 6.43837 16.1391 6.40426 16.2723C6.31901 16.6053 6.3555 16.956 6.41706 17.151C6.4847 17.3653 6.69251 17.7977 6.76086 17.8664C6.78746 17.8931 6.89544 18.0255 7.00078 18.1605C7.10613 18.2955 7.35428 18.5715 7.55228 18.7737C7.93676 19.1666 7.99169 19.2692 7.79717 19.2314C7.63967 19.2007 7.56853 19.3385 7.63361 19.5482C7.68214 19.7045 7.90279 19.9738 7.98203 19.9734C8.00976 19.9733 8.17475 19.8613 8.34867 19.7245C8.52262 19.5878 8.728 19.4446 8.8051 19.4063C8.88221 19.368 8.96583 19.3126 8.99092 19.2831C9.01606 19.2536 9.11089 19.1991 9.20165 19.1619C9.29245 19.1247 9.44072 19.0626 9.53113 19.0239C9.62158 18.9852 9.71052 18.9535 9.72879 18.9535C9.80457 18.9535 10.0133 18.8276 10.0632 18.7518C10.0926 18.707 10.1349 18.6023 10.1571 18.5193C10.2264 18.2598 10.3273 17.0939 10.3095 16.8502C10.3026 16.7553 10.0882 17.0025 10.0882 17.0025C10.0882 17.0025 10.0126 17.1016 9.89114 17.2158C9.76972 17.3301 9.61648 17.4712 9.39756 17.5595C9.18337 17.6459 8.95943 17.6994 8.81243 17.6571L8.65128 17.6108L8.76263 17.5084C8.89695 17.385 9.11958 17.0241 9.11958 16.9543C9.11958 16.9543 8.9733 17.0363 8.86977 17.0601C8.76623 17.0839 8.55614 17.0892 8.48283 17.0789C8.40952 17.0685 8.02566 17.0309 7.7862 16.8845C7.60122 16.7713 7.40082 16.4897 7.40082 16.4897C7.40082 16.4897 7.05701 16.1012 6.84363 15.8498C6.7707 15.7639 6.70588 15.5974 6.70588 15.5974ZM16.4254 15.6233C16.4254 15.6233 16.3661 15.7364 16.3513 15.7967C16.3034 15.991 15.7661 16.5367 15.7661 16.5367C15.7661 16.5367 15.5104 16.8644 15.4007 16.942C15.291 17.0197 15.1953 17.0428 15.1953 17.0428C15.1953 17.0428 15.1842 17.0685 15.3742 17.3941C15.4921 17.5959 15.543 17.7797 15.543 17.7797C15.543 17.7797 15.4787 17.6957 15.4127 17.6123C15.3465 17.5288 15.2359 17.3631 15.1668 17.2439C15.029 17.0061 14.9597 17.1465 14.5446 17.124C14.3953 17.1159 14.0859 16.9635 14.0859 16.9635C14.0859 16.9635 14.2594 17.2866 14.4612 17.4946L14.6028 17.6407L14.4089 17.6162C14.1055 17.5779 13.8398 17.5145 13.6861 17.4436C13.5042 17.3597 13.1871 17.1016 13.1871 17.0375C13.1871 16.997 13.0413 16.9143 12.9698 16.9143C12.9354 16.9143 12.9313 17.4853 12.9973 17.842C13.0716 18.2437 13.2536 18.6869 13.3619 18.825C13.6246 19.1603 14.1402 19.1944 15.0087 18.9339C15.3414 18.8341 15.4643 18.7753 15.7364 18.5735C16.0085 18.3716 16.2969 18.113 16.4893 17.8395C16.6249 17.6469 16.7893 17.2835 16.8672 17.0043C16.9263 16.7924 16.921 16.5547 16.852 16.329C16.7982 16.153 16.7795 16.022 16.6635 15.8617C16.5867 15.7555 16.4254 15.6233 16.4254 15.6233ZM10.7731 21.5148C10.7731 21.5148 10.9183 21.9468 11.6163 21.9478C12.1363 21.9486 12.3546 21.7152 12.5278 21.5265L10.7731 21.5148Z" fill="#002551"/>
<path fill-rule="evenodd" clip-rule="evenodd" d="M13.2866 5.73251C13.2326 5.81767 13.1079 6.27124 13.0728 6.51051C12.9397 7.41796 12.9332 7.60795 12.9407 10.3435C12.9455 12.115 12.9539 12.3813 13.009 12.5054C13.0472 12.5914 13.0984 12.647 13.1392 12.6468C13.2716 12.6464 14.0051 12.2466 14.27 12.0305C14.5664 11.7887 14.5815 11.7699 14.8089 11.3618C15.2922 10.4944 15.3209 9.41669 14.8948 8.14792C14.7556 7.73362 14.4233 7.0111 14.2386 6.72111C13.7886 6.01471 13.3781 5.5884 13.2866 5.73251Z" fill="#026EEC"/>
<path fill-rule="evenodd" clip-rule="evenodd" d="M15.4174 13.3358C15.332 13.3563 15.2273 13.3872 15.1847 13.4044C15.0223 13.4697 14.4329 13.5879 14.0793 13.6259C13.3211 13.7075 13.1428 13.737 13.0499 13.7963C12.9556 13.8564 12.9545 13.864 12.9545 14.4162C12.9545 14.9516 12.9582 14.9786 13.0442 15.0573C13.1184 15.125 13.1803 15.1394 13.3998 15.1394C13.7411 15.1394 14.1581 15.0703 14.2404 15.0001C14.2662 14.9781 14.1903 14.1723 14.1903 14.1723C14.1903 14.1723 14.3498 14.9729 14.3805 14.9916C14.4653 15.0431 14.8459 14.9689 15.5694 14.7598C15.9938 14.6371 16.0965 14.5718 16.0954 14.4254C16.0945 14.3037 15.8065 13.4154 15.7444 13.3424C15.6934 13.2827 15.6425 13.2817 15.4174 13.3358Z" fill="#026EEC"/>
<path fill-rule="evenodd" clip-rule="evenodd" d="M5.33124 12.487C5.28862 12.5162 4.96452 13.0079 4.96452 13.0434C4.96452 13.0547 4.91887 13.1311 4.8631 13.2132C4.66886 13.499 4.79406 13.6157 5.74931 14.0393C6.42209 14.3377 6.41821 14.3361 6.9426 14.5228C8.15361 14.954 8.66399 15.0683 9.63123 15.1248C10.2762 15.1624 10.3164 15.1168 10.3167 14.3453C10.317 13.8025 10.2923 13.7572 9.97732 13.724C9.72347 13.6972 9.07892 13.6116 8.64918 13.5476C8.41053 13.5121 6.96471 13.0795 6.64201 12.9471C6.59399 12.9274 6.51549 12.8956 6.46747 12.8765C6.41946 12.8574 6.1815 12.7554 5.93863 12.6499C5.49845 12.4587 5.40804 12.4345 5.33124 12.487Z" fill="#026EEC"/>
<path fill-rule="evenodd" clip-rule="evenodd" d="M9.21468 5.41898C9.06702 5.49232 8.82267 5.63189 8.67168 5.72921C8.52073 5.82656 8.37974 5.91315 8.35841 5.92169C8.21335 5.97969 7.55422 6.60339 7.27508 6.94673C7.07882 7.18819 7.07196 7.26666 7.22229 7.552C7.34326 7.78164 7.35067 7.81929 7.36328 8.26645C7.38632 9.08308 7.16731 9.48337 6.70431 10.088C6.60114 10.2228 6.41723 10.4152 6.41723 10.4152C6.41723 10.4152 6.86089 10.2775 6.96987 10.1713C7.02991 10.1128 7.09802 10.0989 7.09759 10.1452C7.09682 10.2317 6.78754 10.5862 6.5928 10.7239C6.40143 10.8592 6.21921 10.9099 5.92444 10.9099C5.70208 10.9099 5.66473 10.9199 5.6434 10.9854C5.62986 11.0269 5.63013 11.0958 5.64402 11.1384C5.65794 11.1811 5.67462 11.2928 5.68114 11.3869C5.69491 11.5855 5.81755 11.7348 6.04378 11.8285C6.73386 12.1143 7.31689 12.2984 7.97055 12.4371C8.80382 12.6139 9.03049 12.6522 9.68523 12.7269C10.1351 12.7782 10.1698 12.7666 10.2446 12.5391C10.3094 12.3421 10.338 8.3823 10.2811 7.50552C10.2301 6.72015 10.0818 5.99261 9.90127 5.6419C9.82176 5.48737 9.61705 5.28285 9.54347 5.28443C9.51031 5.28515 9.36238 5.34569 9.21468 5.41898Z" fill="#026EEC"/>
</g>
<defs>
<clipPath id="clip0_450_2534">
<rect width="23" height="31" fill="white"/>
</clipPath>
</defs>
</svg>
