<svg width="20" height="21" viewBox="0 0 20 21" fill="none" xmlns="http://www.w3.org/2000/svg">
<g clip-path="url(#clip0_26_62)">
<path d="M3.33332 0.5H5.83332C7.67426 0.5 9.16664 1.99238 9.16664 3.83332V6.33332C9.16664 8.17426 7.67426 9.66664 5.83332 9.66664H3.33332C1.49238 9.66668 0 8.1743 0 6.33332V3.83332C0 1.99238 1.49238 0.5 3.33332 0.5Z" fill="white"/>
<path class="active" d="M14.1667 0.5H16.6667C18.5076 0.5 20 1.99238 20 3.83332V6.33332C20 8.17426 18.5076 9.66664 16.6667 9.66664H14.1667C12.3258 9.66664 10.8334 8.17426 10.8334 6.33332V3.83332C10.8333 1.99238 12.3257 0.5 14.1667 0.5Z" fill="white"/>
<path class="active" d="M3.33332 11.3333H5.83332C7.67426 11.3333 9.16664 12.8257 9.16664 14.6666V17.1666C9.16664 19.0076 7.67426 20.5 5.83332 20.5H3.33332C1.49238 20.5 0 19.0076 0 17.1667V14.6667C0 12.8257 1.49238 11.3333 3.33332 11.3333Z" fill="white"/>
<path d="M14.1667 11.3333H16.6667C18.5076 11.3333 20 12.8257 20 14.6666V17.1666C20 19.0076 18.5076 20.5 16.6667 20.5H14.1667C12.3258 20.5 10.8334 19.0076 10.8334 17.1667V14.6667C10.8333 12.8257 12.3257 11.3333 14.1667 11.3333Z" fill="white"/>
</g>
<defs>
<clipPath id="clip0_26_62">
<rect width="20" height="20" fill="white" transform="translate(0 0.5)"/>
</clipPath>
</defs>
</svg>
