<svg width="19" height="20" viewBox="0 0 19 20" fill="none" xmlns="http://www.w3.org/2000/svg">
<path d="M12.4154 1.25128L12.4154 16.4454L11.0487 15.1021C10.933 14.9806 10.7941 14.8837 10.6402 14.817C10.4863 14.7503 10.3205 14.7153 10.1528 14.7141C9.98509 14.7128 9.81883 14.7453 9.66393 14.8096C9.50903 14.8739 9.36866 14.9688 9.25118 15.0885C9.1337 15.2082 9.04152 15.3504 8.98012 15.5065C8.91872 15.6625 8.88936 15.8294 8.8938 15.9971C8.89823 16.1647 8.93636 16.3298 9.00592 16.4824C9.07548 16.635 9.17505 16.7721 9.29869 16.8854L11.6254 19.1738C12.1721 19.7052 12.9045 20.0026 13.667 20.0026C14.4295 20.0026 15.1619 19.7052 15.7087 19.1738L18.0362 16.8854C18.2597 16.6507 18.3833 16.3382 18.3808 16.0141C18.3784 15.6899 18.2501 15.3794 18.023 15.148C17.796 14.9167 17.4879 14.7825 17.1639 14.774C16.8398 14.7654 16.5251 14.8831 16.2862 15.1021L14.9154 16.4454L14.9154 1.25128C14.9154 0.919761 14.7837 0.601819 14.5492 0.367399C14.3148 0.132978 13.9969 0.00128115 13.6654 0.00128117C13.3338 0.00128118 13.0159 0.132978 12.7815 0.367399C12.5471 0.601819 12.4154 0.919761 12.4154 1.25128Z" fill="white"/>
<path d="M6.58202 18.7513L6.58202 3.55712L7.94869 4.90045C8.06434 5.02193 8.20326 5.11889 8.35717 5.18556C8.51108 5.25223 8.67684 5.28724 8.84456 5.28851C9.01229 5.28978 9.17855 5.25728 9.33345 5.19294C9.48835 5.12861 9.62872 5.03376 9.7462 4.91405C9.86368 4.79433 9.95586 4.6522 10.0173 4.49611C10.0787 4.34002 10.108 4.17317 10.1036 4.0055C10.0991 3.83783 10.061 3.67277 9.99146 3.52015C9.9219 3.36752 9.82233 3.23045 9.69869 3.11711L7.37119 0.828781C6.82444 0.297319 6.09201 -2.14658e-06 5.32952 -2.11325e-06C4.56704 -2.07992e-06 3.8346 0.297319 3.28786 0.828781L0.96369 3.11712C0.740171 3.35189 0.616601 3.66432 0.619054 3.98848C0.621506 4.31263 0.74979 4.62315 0.976836 4.85452C1.20388 5.08589 1.51193 5.22002 1.83598 5.22858C2.16003 5.23715 2.47474 5.1195 2.71369 4.90045L4.08202 3.55712L4.08202 18.7513C4.08202 19.0828 4.21372 19.4007 4.44814 19.6352C4.68256 19.8696 5.0005 20.0013 5.33202 20.0013C5.66354 20.0013 5.98149 19.8696 6.21591 19.6352C6.45033 19.4007 6.58202 19.0828 6.58202 18.7513Z" fill="white"/>
</svg>
