<svg width="20" height="20" viewBox="0 0 20 20" fill="none" xmlns="http://www.w3.org/2000/svg">
<path d="M19.8333 6.79668L16.9892 15.4633C16.8098 16.0661 16.4948 16.6198 16.0684 17.082C15.642 17.5442 15.1155 17.9027 14.5292 18.13C14.8406 17.4044 15.0008 16.623 15 15.8334V7.50002C14.9982 5.95346 14.3831 4.47076 13.2895 3.37718C12.1959 2.2836 10.7132 1.66845 9.16667 1.66668H7.77917C8.29375 0.985959 9.00434 0.479034 9.81548 0.214018C10.6266 -0.0509988 11.4994 -0.0614102 12.3167 0.184182L17.055 1.63918C18.101 1.96413 18.9779 2.68629 19.4973 3.65059C20.0168 4.61489 20.1374 5.74443 19.8333 6.79668ZM13.3333 7.50002V15.8334C13.332 16.938 12.8926 17.9971 12.1115 18.7782C11.3304 19.5593 10.2713 19.9987 9.16667 20H4.16667C3.062 19.9987 2.00296 19.5593 1.22185 18.7782C0.440735 17.9971 0.00132321 16.938 0 15.8334L0 7.50002C0.00132321 6.39535 0.440735 5.33631 1.22185 4.5552C2.00296 3.77408 3.062 3.33467 4.16667 3.33335H9.16667C10.2713 3.33467 11.3304 3.77408 12.1115 4.5552C12.8926 5.33631 13.332 6.39535 13.3333 7.50002ZM10 10.8334C10 10.3913 9.8244 9.9674 9.51184 9.65484C9.19928 9.34228 8.77536 9.16668 8.33333 9.16668C7.89131 9.16668 7.46738 9.34228 7.15482 9.65484C6.84226 9.9674 6.66667 10.3913 6.66667 10.8334C6.66667 10.3913 6.49107 9.9674 6.17851 9.65484C5.86595 9.34228 5.44203 9.16668 5 9.16668C4.55797 9.16668 4.13405 9.34228 3.82149 9.65484C3.50893 9.9674 3.33333 10.3913 3.33333 10.8334C3.33333 12.0417 4.62 13.6592 5.595 14.4817C5.89457 14.7351 6.27427 14.8742 6.66667 14.8742C7.05907 14.8742 7.43877 14.7351 7.73833 14.4817C8.71333 13.6592 10 12.0417 10 10.8334Z" fill="white"/>
</svg>
