<svg width="56" height="56" viewBox="0 0 56 56" fill="none" xmlns="http://www.w3.org/2000/svg">
<path d="M24.1359 32.568L18.2019 26.634C17.6959 26.128 17.0519 25.875 16.2699 25.875C15.4879 25.875 14.8439 26.128 14.3379 26.634C13.8319 27.14 13.5789 27.784 13.5789 28.566C13.5789 29.348 13.8319 29.992 14.3379 30.498L22.2039 38.364C22.7559 38.916 23.3999 39.192 24.1359 39.192C24.8719 39.192 25.5159 38.916 26.0679 38.364L41.6619 22.77C42.1679 22.264 42.4209 21.62 42.4209 20.838C42.4209 20.056 42.1679 19.412 41.6619 18.906C41.1559 18.4 40.5119 18.147 39.7299 18.147C38.9479 18.147 38.3039 18.4 37.7979 18.906L24.1359 32.568ZM27.9999 55.2C24.1819 55.2 20.5939 54.4755 17.2359 53.0265C13.8779 51.5775 10.9569 49.611 8.4729 47.127C5.9889 44.643 4.0224 41.722 2.5734 38.364C1.1244 35.006 0.399902 31.418 0.399902 27.6C0.399902 23.782 1.1244 20.194 2.5734 16.836C4.0224 13.478 5.9889 10.557 8.4729 8.07295C10.9569 5.58895 13.8779 3.62245 17.2359 2.17345C20.5939 0.724454 24.1819 -4.57764e-05 27.9999 -4.57764e-05C31.8179 -4.57764e-05 35.4059 0.724454 38.7639 2.17345C42.1219 3.62245 45.0429 5.58895 47.5269 8.07295C50.0109 10.557 51.9774 13.478 53.4264 16.836C54.8754 20.194 55.5999 23.782 55.5999 27.6C55.5999 31.418 54.8754 35.006 53.4264 38.364C51.9774 41.722 50.0109 44.643 47.5269 47.127C45.0429 49.611 42.1219 51.5775 38.7639 53.0265C35.4059 54.4755 31.8179 55.2 27.9999 55.2Z" fill="url(#paint0_linear_31_190)"/>
<defs>
<linearGradient id="paint0_linear_31_190" x1="27.9999" y1="-4.57764e-05" x2="27.9999" y2="55.2" gradientUnits="userSpaceOnUse">
<stop stop-color="#72C4FF"/>
<stop offset="0.466346" stop-color="#0095FF"/>
<stop offset="1" stop-color="#72C4FF"/>
</linearGradient>
</defs>
</svg>
