<svg width="28" height="28" viewBox="0 0 28 28" fill="none" xmlns="http://www.w3.org/2000/svg">
<g clip-path="url(#clip0_121_972)">
<circle cx="14.125" cy="14.125" r="13.125" fill="white" fill-opacity="0.15"/>
<path d="M31.229 0H-0.228975C-1.75942 0 -3 1.68496 -3 3.76359V10H34V3.76359C34 1.68496 32.7594 0 31.229 0Z" fill="#397EF8"/>
<path d="M-3 25.6128C-3 27.4835 -1.75942 29 -0.228975 29H31.229C32.7593 29 34 27.4835 34 25.6128V20H-3V25.6128Z" fill="#4DAF00"/>
<path d="M33.6318 11.2861H-3V18.7119H33.6318V11.2861Z" fill="#F5F5F5"/>
<path d="M-3 10.9997V11.2866H33.6318V10.9997V10.2891H-3V10.9997Z" fill="#FF4B55"/>
<path d="M-3 18.9996V19.7103H33.6318V18.9996V18.7127H-3V18.9996Z" fill="#FF4B55"/>
<path d="M9.11862 7.99463C7.82564 7.99463 6.77755 6.94905 6.77755 5.66072C6.77755 4.36766 7.82557 3.31736 9.11862 3.31736C9.12363 3.31736 9.1285 3.31736 9.13336 3.31743C9.20949 3.31843 9.23617 3.21734 9.16906 3.18135C8.77091 2.96792 8.31652 2.84715 7.83344 2.85066C6.28632 2.86168 5.0296 4.14372 5.04606 5.69084C5.06223 7.222 6.314 8.4614 7.85368 8.4614C8.33011 8.4614 8.77813 8.34085 9.17135 8.13036C9.23825 8.09451 9.21121 7.99342 9.13537 7.99449C9.12964 7.99463 9.12413 7.99463 9.11862 7.99463Z" fill="#F5F5F5"/>
<path d="M10.9519 7.34958L10.8474 7.66309L10.5169 7.6656C10.4741 7.66588 10.4564 7.72055 10.4908 7.74594L10.7567 7.94227L10.6569 8.25736C10.6441 8.29814 10.6905 8.33191 10.7253 8.30701L10.9942 8.11484L11.2631 8.30701C11.2979 8.33191 11.3443 8.29814 11.3315 8.25736L11.2317 7.94227L11.4975 7.74594C11.532 7.72055 11.5142 7.66588 11.4714 7.6656L11.141 7.66309L11.0364 7.34958C11.0229 7.30901 10.9655 7.30901 10.9519 7.34958Z" fill="#F5F5F5"/>
<path d="M13.2791 7.34976L13.1745 7.66328L12.8441 7.66578C12.8013 7.66607 12.7835 7.72073 12.818 7.74613L13.0838 7.94245L12.984 8.25754C12.9711 8.29832 13.0176 8.33209 13.0524 8.3072L13.3213 8.11502L13.5902 8.3072C13.625 8.33209 13.6714 8.29832 13.6586 8.25754L13.5588 7.94245L13.8246 7.74613C13.859 7.72073 13.8413 7.66607 13.7985 7.66578L13.468 7.66328L13.3635 7.34976C13.35 7.30919 13.2925 7.30919 13.2791 7.34976Z" fill="#F5F5F5"/>
<path d="M15.6082 7.34976L15.5036 7.66328L15.1732 7.66578C15.1304 7.66607 15.1126 7.72073 15.1471 7.74613L15.4129 7.94245L15.3132 8.25754C15.3003 8.29832 15.3467 8.33209 15.3816 8.3072L15.6505 8.11502L15.9193 8.3072C15.9542 8.33209 16.0005 8.29832 15.9877 8.25754L15.888 7.94245L16.1538 7.74613C16.1882 7.72073 16.1705 7.66607 16.1277 7.66578L15.7972 7.66328L15.6927 7.34976C15.6792 7.30919 15.6217 7.30919 15.6082 7.34976Z" fill="#F5F5F5"/>
<path d="M17.9363 7.34958L17.8318 7.66309L17.5013 7.6656C17.4585 7.66588 17.4408 7.72055 17.4752 7.74594L17.741 7.94227L17.6412 8.25736C17.6284 8.29814 17.6748 8.33191 17.7096 8.30701L17.9785 8.11484L18.2474 8.30701C18.2822 8.33191 18.3286 8.29814 18.3158 8.25736L18.216 7.94227L18.4818 7.74594C18.5163 7.72055 18.4985 7.66588 18.4557 7.6656L18.1253 7.66309L18.0207 7.34958C18.0073 7.30901 17.9498 7.30901 17.9363 7.34958Z" fill="#F5F5F5"/>
<path d="M20.2664 7.34958L20.1619 7.66309L19.8314 7.6656C19.7886 7.66588 19.7709 7.72055 19.8053 7.74594L20.0711 7.94227L19.9714 8.25736C19.9585 8.29814 20.005 8.33191 20.0398 8.30701L20.3087 8.11484L20.5775 8.30701C20.6124 8.33191 20.6587 8.29814 20.6459 8.25736L20.5462 7.94227L20.8121 7.74594C20.8465 7.72055 20.8287 7.66588 20.786 7.6656L20.4555 7.66309L20.3509 7.34958C20.3373 7.30901 20.2799 7.30901 20.2664 7.34958Z" fill="#F5F5F5"/>
<path d="M13.2791 5.17604L13.1745 5.48956L12.8441 5.49206C12.8013 5.49235 12.7835 5.54701 12.818 5.57241L13.0838 5.76873L12.984 6.08382C12.9711 6.1246 13.0176 6.15837 13.0524 6.13347L13.3213 5.9413L13.5902 6.13347C13.625 6.15837 13.6714 6.1246 13.6586 6.08382L13.5588 5.76873L13.8246 5.57241C13.859 5.54701 13.8413 5.49235 13.7985 5.49206L13.468 5.48956L13.3635 5.17604C13.35 5.13533 13.2925 5.13533 13.2791 5.17604Z" fill="#F5F5F5"/>
<path d="M15.6082 5.17604L15.5036 5.48956L15.1732 5.49206C15.1304 5.49235 15.1126 5.54701 15.1471 5.57241L15.4129 5.76873L15.3132 6.08382C15.3003 6.1246 15.3467 6.15837 15.3816 6.13347L15.6505 5.9413L15.9193 6.13347C15.9542 6.15837 16.0005 6.1246 15.9877 6.08382L15.888 5.76873L16.1538 5.57241C16.1882 5.54701 16.1705 5.49235 16.1277 5.49206L15.7972 5.48956L15.6927 5.17604C15.6792 5.13533 15.6217 5.13533 15.6082 5.17604Z" fill="#F5F5F5"/>
<path d="M17.9363 5.17598L17.8318 5.4895L17.5013 5.492C17.4585 5.49229 17.4408 5.54695 17.4752 5.57235L17.741 5.76867L17.6412 6.08376C17.6284 6.12454 17.6748 6.15831 17.7096 6.13341L17.9785 5.94124L18.2474 6.13341C18.2822 6.15831 18.3286 6.12454 18.3158 6.08376L18.216 5.76867L18.4818 5.57235C18.5163 5.54695 18.4985 5.49229 18.4557 5.492L18.1253 5.4895L18.0207 5.17598C18.0073 5.13527 17.9498 5.13527 17.9363 5.17598Z" fill="#F5F5F5"/>
<path d="M20.2664 5.17598L20.1619 5.4895L19.8314 5.492C19.7886 5.49229 19.7709 5.54695 19.8053 5.57235L20.0711 5.76867L19.9714 6.08376C19.9585 6.12454 20.005 6.15831 20.0398 6.13341L20.3087 5.94124L20.5775 6.13341C20.6124 6.15831 20.6587 6.12454 20.6459 6.08376L20.5462 5.76867L20.8121 5.57235C20.8465 5.54695 20.8287 5.49229 20.786 5.492L20.4555 5.4895L20.3509 5.17598C20.3373 5.13527 20.2799 5.13527 20.2664 5.17598Z" fill="#F5F5F5"/>
<path d="M15.6082 7.34976L15.5036 7.66328L15.1732 7.66578C15.1304 7.66607 15.1126 7.72073 15.1471 7.74613L15.4129 7.94245L15.3132 8.25754C15.3003 8.29832 15.3467 8.33209 15.3816 8.3072L15.6505 8.11502L15.9193 8.3072C15.9542 8.33209 16.0005 8.29832 15.9877 8.25754L15.888 7.94245L16.1538 7.74613C16.1882 7.72073 16.1705 7.66607 16.1277 7.66578L15.7972 7.66328L15.6927 7.34976C15.6792 7.30919 15.6217 7.30919 15.6082 7.34976Z" fill="#F5F5F5"/>
<path d="M15.6082 3.00259L15.5036 3.31611L15.1732 3.31861C15.1304 3.3189 15.1126 3.37356 15.1471 3.39896L15.4129 3.59528L15.3132 3.91037C15.3003 3.95116 15.3467 3.98493 15.3816 3.96003L15.6505 3.76785L15.9193 3.96003C15.9542 3.98493 16.0005 3.95116 15.9877 3.91037L15.888 3.59528L16.1538 3.39896C16.1882 3.37356 16.1705 3.3189 16.1277 3.31861L15.7972 3.31611L15.6927 3.00259C15.6792 2.96203 15.6217 2.96203 15.6082 3.00259Z" fill="#F5F5F5"/>
<path d="M17.9363 7.34958L17.8318 7.66309L17.5013 7.6656C17.4585 7.66588 17.4408 7.72055 17.4752 7.74594L17.741 7.94227L17.6412 8.25736C17.6284 8.29814 17.6748 8.33191 17.7096 8.30701L17.9785 8.11484L18.2474 8.30701C18.2822 8.33191 18.3286 8.29814 18.3158 8.25736L18.216 7.94227L18.4818 7.74594C18.5163 7.72055 18.4985 7.66588 18.4557 7.6656L18.1253 7.66309L18.0207 7.34958C18.0073 7.30901 17.9498 7.30901 17.9363 7.34958Z" fill="#F5F5F5"/>
<path d="M20.2664 7.34958L20.1619 7.66309L19.8314 7.6656C19.7886 7.66588 19.7709 7.72055 19.8053 7.74594L20.0711 7.94227L19.9714 8.25736C19.9585 8.29814 20.005 8.33191 20.0398 8.30701L20.3087 8.11484L20.5775 8.30701C20.6124 8.33191 20.6587 8.29814 20.6459 8.25736L20.5462 7.94227L20.8121 7.74594C20.8465 7.72055 20.8287 7.66588 20.786 7.6656L20.4555 7.66309L20.3509 7.34958C20.3373 7.30901 20.2799 7.30901 20.2664 7.34958Z" fill="#F5F5F5"/>
<path d="M17.9363 3.00284L17.8318 3.31635L17.5013 3.31886C17.4585 3.31914 17.4408 3.37381 17.4752 3.3992L17.741 3.59553L17.6412 3.91062C17.6284 3.9514 17.6748 3.98517 17.7096 3.96027L17.9785 3.7681L18.2474 3.96027C18.2822 3.98517 18.3286 3.9514 18.3158 3.91062L18.216 3.59553L18.4818 3.3992C18.5163 3.37381 18.4985 3.31914 18.4557 3.31886L18.1253 3.31635L18.0207 3.00284C18.0073 2.96227 17.9498 2.96227 17.9363 3.00284Z" fill="#F5F5F5"/>
<path d="M20.2664 3.00284L20.1619 3.31635L19.8314 3.31886C19.7886 3.31914 19.7709 3.37381 19.8053 3.3992L20.0711 3.59553L19.9714 3.91062C19.9585 3.9514 20.005 3.98517 20.0398 3.96027L20.3087 3.7681L20.5775 3.96027C20.6124 3.98517 20.6587 3.9514 20.6459 3.91062L20.5462 3.59553L20.8121 3.3992C20.8465 3.37381 20.8287 3.31914 20.786 3.31886L20.4555 3.31635L20.3509 3.00284C20.3373 2.96227 20.2799 2.96227 20.2664 3.00284Z" fill="#F5F5F5"/>
<circle cx="14.125" cy="14.125" r="13.125" fill="white" fill-opacity="0.15"/>
</g>
<defs>
<clipPath id="clip0_121_972">
<rect width="28" height="28" rx="14" fill="white"/>
</clipPath>
</defs>
</svg>
