<svg width="15" height="17" viewBox="0 0 15 17" fill="none" xmlns="http://www.w3.org/2000/svg">
<path fill-rule="evenodd" clip-rule="evenodd" d="M14.2104 8.58772C14.2104 11.1213 13.6209 13.0093 12.4429 14.2395C11.2649 15.4697 9.44469 16.0845 6.9908 16.0845C4.69809 16.0845 2.95869 15.4695 1.77259 14.2395C0.586496 13.0095 -0.00648587 11.1544 -0.00634763 8.67428V0.353314C-0.00607435 0.25967 0.0319114 0.169936 0.0993161 0.1037C0.166721 0.0374649 0.25807 0.000108718 0.353422 -0.000213623H4.51057C4.60596 5.50309e-05 4.69736 0.0373876 4.76481 0.103629C4.83226 0.16987 4.87027 0.259635 4.87055 0.353314V8.85613C4.87055 9.86886 5.06132 10.6482 5.44949 11.1981C5.64215 11.4489 5.89059 11.6532 6.17586 11.7954C6.46112 11.9377 6.77569 12.014 7.09558 12.0188C7.41547 12.0235 7.73223 11.9564 8.02172 11.8226C8.3112 11.6889 8.56577 11.492 8.766 11.2469C9.14547 10.731 9.33458 9.97075 9.33334 8.9661V7.37379H14.2104V8.58772Z" fill="white"/>
<path fill-rule="evenodd" clip-rule="evenodd" d="M13.8342 6.44374H9.33447V0.370013C9.33475 0.271905 9.37455 0.177893 9.44519 0.10852C9.51583 0.039147 9.61155 5.50935e-05 9.71145 -0.000213623H10.385C10.3857 0.995707 10.789 1.95059 11.5063 2.65457C12.2236 3.35854 13.1962 3.75399 14.2103 3.75399H14.2114V6.44374H13.8342Z" fill="white"/>
<path fill-rule="evenodd" clip-rule="evenodd" d="M11.3423 -0.000213623H13.8333C13.9332 5.50936e-05 14.0289 0.039147 14.0996 0.10852C14.1702 0.177893 14.21 0.271905 14.2103 0.370013V2.81947C13.4496 2.81947 12.7202 2.52271 12.1823 1.99449C11.6445 1.46627 11.3423 0.749856 11.3423 0.00284094V-0.000213623Z" fill="white"/>
</svg>
